<svg width="105" height="105" viewBox="0 0 105 105" fill="none" xmlns="http://www.w3.org/2000/svg">
<path opacity="0.4" d="M78.0498 14.0815C68.7223 14.0115 59.4531 14.729 50.2656 16.3857C45.7856 17.1907 41.3464 18.2407 36.9656 19.4657C34.7723 20.0782 32.5848 20.7199 30.4264 21.449C28.5248 22.0907 26.5881 22.9307 25.2639 24.494C23.9398 26.0574 23.2689 28.1224 22.8489 30.1582C22.4289 32.194 22.1664 34.3232 22.0614 36.429C21.8573 40.5765 22.2598 44.7415 23.2398 48.7724C24.2081 52.739 25.7131 56.659 27.7781 60.1824C28.7581 61.8565 29.9539 63.4257 31.5873 64.5165C33.2264 65.6074 35.1631 66.039 37.0823 66.2899C46.1414 67.4682 55.4398 66.2374 64.4056 64.8957L62.7023 63.9274C63.4373 68.069 63.7173 72.2865 62.9298 76.4457C62.7781 77.239 63.6239 78.1199 64.4114 77.5832C67.0131 75.8274 69.3231 73.739 71.2364 71.2365C72.1814 70.0057 73.0156 68.699 73.7273 67.3165C74.0539 66.6807 74.3514 66.0274 74.6314 65.3682C74.9348 64.6507 75.1914 63.8515 75.6814 63.2332C76.5856 62.084 78.4639 62.154 79.7764 61.9615C81.5906 61.6932 83.3989 61.3665 85.2131 61.0574C87.0273 60.7482 88.8881 60.229 90.6906 59.7215C92.2948 59.2724 93.9339 58.829 95.4331 58.0882C96.8506 57.3882 98.1339 56.3265 98.8923 54.9149C99.6506 53.5032 99.9073 51.794 100.001 50.1665C100.205 46.5149 100.193 42.8399 100.269 39.1882C100.345 35.7349 100.263 32.299 100.164 28.8515C100.094 26.5065 100.024 24.1499 99.5514 21.8457C99.0381 19.3432 97.9356 16.899 95.7773 15.4115C94.4764 14.519 92.7789 14.2624 91.2448 14.099C89.3781 13.9007 87.4531 14.1515 85.5806 14.2565C84.5773 14.3149 84.5598 15.8549 85.5806 15.8315C87.1556 15.8024 88.6839 15.8315 90.2531 16.0065C91.6531 16.164 92.9598 16.4207 94.1848 17.1557C95.9231 18.194 96.7514 20.0432 97.2064 21.9449C97.7023 24.0215 97.7781 26.1624 97.8364 28.2857C97.9181 31.3424 98.0114 34.3874 97.9648 37.444C97.9064 41.119 97.7081 44.7882 97.4981 48.4574C97.4164 49.9157 97.3581 51.4149 96.8448 52.8032C96.3839 54.0574 95.4973 54.9149 94.3306 55.5274C93.0064 56.2215 91.5189 56.6007 90.0898 57.0149C88.4156 57.4932 86.7239 57.8899 85.0381 58.3215C83.3056 58.7649 81.5848 59.1849 79.8231 59.5115C78.3123 59.7915 76.6089 59.8732 75.2381 60.6374C73.7506 61.4715 73.1673 63.0524 72.5664 64.5515C71.9656 66.0507 71.2073 67.474 70.3323 68.8215C68.5298 71.5865 66.1614 74.0307 63.3906 75.8274C63.8864 76.2065 64.3764 76.5857 64.8723 76.9649C65.8231 72.4324 66.1906 67.754 65.3681 63.1749C65.2281 62.3815 64.3473 62.1074 63.6648 62.2065C56.0639 63.3615 48.2998 64.4349 40.5881 64.2715C36.9656 64.1957 33.2089 63.8515 30.8523 60.754C29.7789 59.3424 29.0264 57.6682 28.3148 56.0524C27.5214 54.2557 26.8798 52.3832 26.3606 50.4874C25.3243 46.7135 24.7793 42.8216 24.7389 38.9082C24.7214 37.0357 24.8206 35.1574 25.0656 33.2965C25.3106 31.4532 25.6081 29.4407 26.4014 27.7432C27.1539 26.1332 28.4139 25.1474 30.0414 24.4882C31.9898 23.6949 34.0548 23.1349 36.0673 22.5399C40.2556 21.309 44.4964 20.2532 48.7723 19.3782C58.3914 17.4182 68.2089 16.199 78.0264 15.9949C79.2748 15.9715 79.2806 14.064 78.0264 14.0524L78.0498 14.0815Z" fill="#472D30"/>
<path opacity="0.4" d="M63.5192 52.1674C60.8651 50.3766 56.2042 47.1099 53.6142 45.2257C51.0242 43.3416 48.6909 40.8682 47.8276 37.7882C47.3434 36.0616 47.4017 34.0491 48.5392 32.6607C50.0442 30.8349 52.9201 30.7532 55.0667 31.7449C58.0417 33.1216 59.9667 36.0266 61.7284 38.7916C61.6059 36.6916 61.8101 34.5391 62.6792 32.6199C63.5484 30.7066 65.1351 29.0557 67.1476 28.4432C69.1601 27.8307 71.5634 28.4141 72.8409 30.0824C73.3017 30.6891 73.6051 31.4066 73.8092 32.1416C74.8709 35.9216 73.4126 40.0049 71.1901 43.2366C68.9617 46.4682 65.9984 49.1224 63.5192 52.1674Z" fill="#472D30"/>
<path opacity="0.4" d="M63.9918 51.3566C61.8743 49.8807 59.7859 48.3699 57.6976 46.8532C55.6093 45.3366 53.3984 43.9191 51.6251 42.0232C49.8984 40.1741 48.1426 37.3916 48.7726 34.7374C49.3793 32.1707 52.2726 31.8032 54.4018 32.6724C57.2543 33.8391 59.2784 36.7849 60.8651 39.2932C61.3668 40.0866 62.7668 39.8241 62.7201 38.7916C62.5918 36.0849 62.9768 33.1449 64.9076 31.0857C66.4418 29.4466 68.8801 28.6416 70.9334 29.8432C73.1734 31.1557 73.2843 34.5041 72.8234 36.7616C72.2693 39.4799 70.8576 41.9124 69.1426 44.0591C67.1126 46.5966 64.7618 48.8424 62.7026 51.3566C62.3118 51.8349 62.2359 52.5116 62.7026 52.9782C63.1109 53.3866 63.9334 53.4624 64.3243 52.9782C68.4951 47.9091 74.2001 43.4466 75.1626 36.5224C75.5826 33.5182 74.9876 29.7907 72.1935 28.0757C69.656 26.5124 66.4651 27.0666 64.2368 28.8866C61.3201 31.2666 60.5268 35.2041 60.7251 38.7916C61.3434 38.6224 61.9618 38.4591 62.5801 38.2899C60.7893 35.5132 59.0568 32.5732 56.0351 30.9807C53.5268 29.6566 49.9335 29.4466 47.8626 31.7157C45.4826 34.3232 46.3634 38.3191 48.0318 41.0491C49.6768 43.7324 52.1676 45.5582 54.7051 47.3374C57.4526 49.2624 60.2351 51.1466 63.0409 52.9841C64.0618 53.6549 64.966 52.0449 63.986 51.3624L63.9918 51.3566ZM22.3593 45.8324C19.1743 46.6549 16.0184 47.7282 13.2184 49.4549C7.99762 52.6691 5.09845 58.6657 6.00845 64.7557C7.03512 71.6099 12.7634 76.5799 19.1218 78.5807C23.6484 80.0099 29.4118 80.0741 34.1134 79.3741C35.0409 84.4024 32.2935 89.8682 28.4843 93.2807C32.0601 93.1932 35.5718 91.5949 37.9868 88.9524C40.4018 86.3157 41.6851 82.6699 41.4576 79.1057C45.4243 78.3707 49.6826 77.4841 52.4068 74.5091C54.5768 72.1349 55.3759 68.8507 56.0934 65.7182C51.2343 66.4416 46.311 66.7507 41.3993 66.6516C37.3801 66.5699 33.1043 66.1149 29.9659 63.6066C28.1576 62.1657 26.8918 60.1649 25.8068 58.1232C23.946 54.6232 22.5226 50.8841 21.5834 47.0282" fill="#472D30"/>
<path opacity="0.4" d="M22.1145 44.94C17.5529 45.9725 12.8512 47.5183 9.45621 50.8958C6.49871 53.8358 4.74871 57.855 4.60288 62.02C4.31121 70.4433 11.0545 77.0875 18.6379 79.5667C23.5962 81.1883 28.992 81.1242 34.1137 80.5058L33.0229 79.6717C33.7404 84.5075 31.1504 89.2792 27.6562 92.4467C26.9095 93.1233 27.487 94.4825 28.4845 94.4475C32.3345 94.3192 36.1029 92.6975 38.7395 89.8625C41.3762 87.0275 42.8404 83.0317 42.6129 79.1L41.767 80.2142C45.4304 79.52 49.2162 78.7208 52.1795 76.3117C55.3004 73.7742 56.3504 69.7725 57.2312 66.0275C57.4587 65.0708 56.6595 64.4525 55.7787 64.575C52.6579 65.0067 49.5079 65.2692 46.3579 65.3683C43.447 65.4617 40.4779 65.4908 37.5845 65.135C35.1579 64.8375 32.6087 64.1375 30.6895 62.545C28.6362 60.8417 27.3295 58.4325 26.1629 56.0817C24.6754 53.0892 23.5495 49.9508 22.7445 46.7133C22.3712 45.2025 20.0437 45.8442 20.417 47.355C21.1787 50.4583 22.2294 53.4835 23.5554 56.3908C24.757 59.0392 26.157 61.7575 28.257 63.8108C32.597 68.0633 39.282 68.04 44.9462 67.9058C48.7904 67.8125 52.617 67.4508 56.4145 66.8617L54.962 65.4092C54.2095 68.7633 53.3579 72.4208 50.5462 74.6783C47.927 76.7842 44.3745 77.4083 41.1604 77.9975C40.6879 78.085 40.2854 78.6392 40.3145 79.1117C40.4837 82.425 39.3695 85.7733 37.0887 88.2175C34.872 90.5975 31.7454 92.0033 28.4962 92.1142L29.3245 94.115C33.3845 90.4283 36.3245 84.6592 35.2162 79.0767C35.0879 78.435 34.3879 78.19 33.822 78.2833C29.692 78.9892 25.2062 78.9308 21.117 77.9917C17.5995 77.1867 14.2629 75.5125 11.6437 73.0042C6.32371 67.9058 5.54788 59.325 10.3254 53.5792C13.4054 49.875 18.1187 48.0608 22.6162 46.725C23.7595 46.3867 23.287 44.6775 22.1262 44.94H22.1145ZM13.8837 25.5733C12.5537 24.9842 11.2704 24.2725 10.0162 23.5317C9.53788 23.2458 8.83204 23.4092 8.56371 23.9108C8.27204 24.4592 8.45871 25.0192 8.94287 25.3633C9.54954 25.795 10.1679 26.1917 10.8329 26.5358C11.5504 26.915 12.2912 27.2475 13.0437 27.5625C13.277 27.6617 13.6795 27.5858 13.8837 27.4517C14.0879 27.3175 14.2337 27.1542 14.327 26.9325C14.5195 26.4833 14.3795 25.7892 13.8837 25.5733ZM23.777 15.5808C22.9254 14.1283 22.1145 12.6525 21.3737 11.1417C21.1345 10.6575 20.4112 10.4883 19.9679 10.7742C19.472 11.095 19.3495 11.6608 19.6004 12.18C20.3354 13.6967 21.187 15.155 22.1729 16.5258C22.4587 16.9167 22.9954 17.15 23.4445 16.8583C23.8704 16.5842 24.0395 16.0358 23.777 15.5867V15.5808ZM36.9545 11.5208C36.972 10.6633 36.9895 9.80583 37.0129 8.94833L37.042 7.68833L37.0537 7.05833C37.0537 6.95916 37.0595 6.86583 37.0537 6.76666C37.0537 6.57999 37.007 6.40499 36.9137 6.24749C36.7387 6.00833 36.7037 5.96749 36.8087 6.11916C36.3829 5.54166 35.6712 5.54166 35.2454 6.11916C35.3504 5.96749 35.3154 6.01416 35.1404 6.24749C35.0645 6.36416 35.0237 6.49249 35.0179 6.63249C35.0004 6.77833 35.0004 6.91249 35.0004 7.05833L35.012 7.64166L35.0412 8.95416L35.0995 11.5267C35.1112 12.0108 35.5195 12.4775 36.027 12.4542C36.5345 12.4308 36.9429 12.0458 36.9545 11.5267V11.5208ZM52.8504 9.04749L52.9904 8.63333C53.0312 8.49333 53.0429 8.35333 53.0079 8.21916C53.002 8.07916 52.9612 7.95083 52.8854 7.82833C52.8212 7.70583 52.7279 7.60666 52.617 7.53666C52.5158 7.44577 52.3935 7.38161 52.2612 7.34999L51.9812 7.31499C51.7945 7.31499 51.6195 7.36166 51.4562 7.45499L51.2462 7.61833C51.1179 7.74666 51.0245 7.90416 50.9779 8.07916L50.8379 8.49333C50.797 8.63333 50.7854 8.77333 50.8204 8.90749C50.8262 9.04749 50.867 9.17583 50.9429 9.29833C51.007 9.42083 51.1004 9.51999 51.2112 9.58999C51.3104 9.68333 51.4329 9.74166 51.567 9.77666L51.847 9.81166C52.0337 9.81166 52.2087 9.76499 52.372 9.67166L52.582 9.50833C52.7104 9.37999 52.8037 9.22249 52.8504 9.04749ZM50.4762 99.1258C54.8454 99.645 59.6287 99.7908 63.4495 97.2358C65.1529 96.0983 66.6812 94.43 67.212 92.4C67.7429 90.37 66.9729 88.3517 65.4329 86.9517C63.8462 85.4992 61.7054 84.5775 59.5995 84.1983C57.7154 83.8658 55.5395 83.79 53.842 84.8342C52.0687 85.925 51.5612 87.9842 52.4012 89.8508C53.2412 91.7175 55.0962 93.17 56.817 94.2433C63.9687 98.7117 73.5645 97.5858 79.4329 91.5133C82.0754 88.7775 84.3387 84.2158 81.7137 80.71C80.5354 79.135 78.6162 78.0908 76.6562 77.945C74.6962 77.7992 72.8354 79.2867 73.0279 81.3867C73.2262 83.5275 74.9937 84.77 76.8895 85.4058C79.007 86.1175 81.457 86.4967 83.6329 85.7967C87.5762 84.5308 90.0554 80.5408 91.292 76.8075C91.642 75.74 91.887 74.6492 92.0445 73.535C92.1204 73.0042 91.9162 72.485 91.3562 72.3217C90.8954 72.1875 90.2187 72.485 90.1429 73.01C89.682 76.3875 88.3345 79.8875 85.8262 82.2733C84.6595 83.3817 83.1954 84.1692 81.562 84.2508C79.8879 84.3325 77.8812 83.8892 76.417 83.0492C75.8454 82.7167 75.3262 82.2675 75.157 81.6025C75.0054 81.0133 75.1454 80.4008 75.7754 80.2025C77.047 79.8058 78.7212 80.6633 79.602 81.5325C82.0229 83.9067 80.2262 87.535 78.3537 89.6233C73.9145 94.5817 66.7629 96.2792 60.5854 93.8058C59.028 93.1803 57.5805 92.3099 56.2979 91.2275C55.3529 90.4225 53.6379 88.8767 54.2737 87.4475C54.7637 86.345 56.3504 86.1525 57.3945 86.1583C59.1562 86.1758 60.9295 86.6483 62.4695 87.4942C63.8987 88.2817 65.4445 89.5825 65.2345 91.3908C65.0362 93.1 63.6654 94.57 62.2887 95.4858C58.8004 97.7958 54.437 97.5508 50.4645 97.1075C49.922 97.0492 49.4612 97.615 49.4554 98.1167C49.4495 98.7117 49.922 99.0617 50.4645 99.1258H50.4762Z" fill="#472D30"/>
</svg>
