<svg width="105" height="109" viewBox="0 0 105 109" fill="none" xmlns="http://www.w3.org/2000/svg">
<path opacity="0.4" d="M4.67737 91.6335C9.19689 92.3552 13.6108 93.4856 18.2255 93.1184C22.6356 92.7647 26.9879 91.4569 31.4387 91.6061C33.3415 91.6729 35.2302 92.0208 36.9545 92.8536C38.4682 93.5876 39.8588 94.5636 41.3377 95.3684C44.4201 97.058 48.1637 98.0015 51.2931 95.8513C54.1655 93.878 55.7225 90.1221 54.8285 86.6985C54.2669 84.5349 53.1749 82.5073 51.5623 80.9483C48.4431 77.9398 44.0973 76.7754 39.993 75.8231C35.8888 74.8707 31.6451 74.2019 28.3772 72.0098C27.5884 71.4824 27.1193 71.093 26.4457 70.2874C26.2928 70.1063 26.1459 69.9239 26.0097 69.7327C26.12 69.8917 25.8542 69.4827 25.8044 69.3989C25.5268 68.9356 25.2899 68.4571 25.0911 67.9512C24.238 65.8076 24.2165 62.8045 24.8657 60.3358C25.603 57.5507 27.1997 54.2348 30.0195 53.0566C31.2015 52.562 32.4893 52.6949 33.6121 53.2814C34.8201 53.9122 35.4946 54.8376 36.2164 56.0938C37.7198 58.7069 38.8093 62.0747 41.6876 63.4934C43.3392 64.3107 45.2962 64.3087 46.736 63.0368C47.7536 62.1362 48.2061 60.8104 48.2279 59.4723C48.2662 56.8288 47.1649 54.1839 45.9916 51.8709C44.6125 49.1356 43.1184 46.3057 40.9299 44.1282C38.9257 42.1312 36.347 40.8739 33.4874 40.8349C29.6244 40.7836 25.8845 42.5313 22.7956 44.723C21.0752 45.9493 19.509 47.3628 18.0572 48.8964C18.6677 49.5579 19.2722 50.2207 19.8814 50.8762C24.1833 46.3189 28.8082 41.684 34.7556 39.4114C36.9799 38.5605 39.3521 37.7527 41.1442 36.1062C42.7265 34.6512 43.5758 32.4354 43.2435 30.2844C42.6845 26.7237 38.7023 26.6165 35.9194 27.1293C32.5442 27.7539 29.2486 29.0876 26.1833 30.6107C20.797 33.2903 16.772 38.0204 12.2962 41.9272C10.9012 43.145 12.8424 45.257 14.2448 44.044C16.6828 41.9263 19.0655 39.7576 21.5194 37.6554C23.628 35.8443 25.7834 33.9596 28.1292 32.4562C30.9038 30.6687 34.4098 29.118 36.1517 26.1492C37.1157 24.5147 37.1335 22.6403 36.021 21.0658C34.874 19.4484 32.8545 19.1357 31.0066 19.2906C28.9733 19.4612 27.0342 20.0912 25.1303 20.7956C23.0996 21.5532 21.106 22.4228 19.2212 23.5021C13.4821 26.7841 8.65637 31.5075 4.86583 36.9062C3.79142 38.4387 6.22738 39.9929 7.30444 38.4725C8.77018 36.3987 10.5926 34.6317 12.2912 32.7593C13.0171 31.9623 13.717 31.1419 14.3899 30.2994C14.5832 30.0609 14.2094 30.5099 14.3806 30.3141C14.4407 30.244 14.4949 30.1752 14.5551 30.105C14.7403 29.8872 14.9255 29.6694 15.1047 29.453C16.8759 27.3371 18.8121 25.0837 19.7511 22.4436C20.1793 21.237 20.3013 19.8388 19.5318 18.7385C18.6607 17.4899 17.0426 17.1708 15.6117 17.1894C10.1642 17.2602 6.24964 21.5172 2.89428 25.3096C-0.798693 29.4861 -4.1835 33.8916 -6.60107 38.9495C-6.94212 39.663 -6.87678 40.508 -6.15911 40.9689C-5.55861 41.3546 -4.48887 41.2386 -4.14781 40.5252C-2.22208 36.4984 0.31821 32.8353 3.17794 29.4239C4.65429 27.6575 6.1693 25.8951 7.80135 24.2649C9.37058 22.6928 11.1918 21.1219 13.3397 20.4395C14.2745 20.1385 15.245 20.0002 16.2269 20.0869C16.6315 20.124 16.4609 20.0921 16.8161 20.1907C16.93 20.2224 17.2324 20.339 16.9553 20.2232C17.0173 20.2474 17.3082 20.455 17.1465 20.32C16.9848 20.1851 17.2289 20.4093 17.2648 20.4582C17.1459 20.2886 17.1219 20.2939 17.2322 20.4528C17.3697 20.6499 17.1548 20.1855 17.2122 20.4193C17.2948 20.7676 17.2493 20.2721 17.2281 20.4916C17.2198 20.6261 17.1505 21.1722 17.2213 20.8343C17.166 21.0993 17.084 21.3575 16.9947 21.611C16.9431 21.7488 16.8901 21.8805 16.8324 22.0196C16.7366 22.243 16.7989 22.0965 16.7688 22.1601C16.6247 22.4509 16.466 22.7324 16.3073 23.0138C15.9873 23.5647 15.6307 24.092 15.2668 24.6147C14.9028 25.1373 14.4862 25.6779 14.0762 26.1917C13.903 26.4069 13.7359 26.6207 13.5627 26.8358C13.4684 26.9514 13.3681 27.0683 13.2738 27.1839C13.1702 27.3142 13.2985 27.1532 13.3079 27.1385C13.2584 27.1999 13.2089 27.2614 13.1535 27.3242C12.1652 28.5027 11.193 29.6967 10.1555 30.8229C8.33462 32.7981 6.42922 34.7035 4.86451 36.9002L7.30312 38.4664C10.3356 34.1765 14.0833 30.2786 18.4607 27.3603C20.4921 26.0021 22.6484 24.8692 24.9075 23.9474C26.4212 23.3291 27.7165 22.8348 29.3803 22.4424C30.1822 22.2529 30.9993 22.1042 31.6961 22.0958C32.0035 22.0912 32.5454 22.1233 32.7174 22.1612C32.9473 22.2053 33.301 22.3547 33.4035 22.4206C33.55 22.5146 33.6863 22.6488 33.776 22.7997C33.857 22.9398 33.9333 23.0872 33.9977 23.2373C34.0885 23.4511 33.9468 23.0337 34.0003 23.2494L34.0676 23.5568C34.0847 23.6352 34.0676 23.8159 34.0649 23.5448C34.0648 23.6017 34.0733 23.6693 34.0612 23.7289C34.047 23.8078 34.0521 23.8888 34.0379 23.9678C34.0094 24.1826 34.0918 23.7537 34.0379 23.9678C33.9095 24.4448 33.9263 24.3779 33.7369 24.6914C33.0869 25.7764 31.7369 26.8262 30.6404 27.5673C29.4069 28.4018 28.1037 29.119 26.849 29.914C24.3957 31.4727 22.1289 33.3946 19.9169 35.2791C17.3487 37.4634 14.8557 39.7322 12.3049 41.938C12.956 42.6411 13.6024 43.3516 14.2535 44.0547C16.7816 41.8603 19.0843 39.4123 21.5879 37.1917C23.0799 35.8704 24.6264 34.5687 26.3783 33.6008C29.0621 32.1177 31.7992 30.9641 34.6047 30.1808C35.3519 29.9717 36.1118 29.7915 36.8802 29.6788C37.0629 29.6511 37.253 29.6282 37.4371 29.6065C37.5358 29.5974 37.6391 29.5809 37.7392 29.5778C37.4778 29.5912 37.6898 29.5823 37.7392 29.5778C38.0752 29.5605 38.4066 29.5506 38.7386 29.5721C38.892 29.5825 39.0466 29.5989 39.2013 29.6154C39.2653 29.6202 39.3306 29.6311 39.3959 29.642C39.5845 29.6698 39.1573 29.5872 39.3379 29.6358C39.4712 29.6696 39.6057 29.7094 39.7403 29.7492C39.795 29.7688 39.8509 29.7943 39.9115 29.8125C39.6712 29.6634 40.1894 29.9029 39.9115 29.8125C40.0054 29.8677 40.1006 29.9288 40.1958 29.99C40.4908 30.1587 40.1195 29.8425 40.2743 30.0611C40.3388 30.1543 40.5354 30.4774 40.3515 30.1262C40.4166 30.2509 40.4816 30.3756 40.548 30.5063C40.4186 30.2315 40.5335 30.4399 40.5618 30.598C40.5895 30.7246 40.6125 30.8585 40.6282 30.9878C40.5817 30.6315 40.6212 31.1283 40.6183 31.2301C40.6125 31.4336 40.5947 31.6397 40.5635 31.8425C40.5316 32.0707 40.4405 32.5458 40.2549 32.9343C40.0948 33.2666 39.8372 33.6141 39.5746 33.8806C38.0614 35.4214 35.8201 36.137 33.8495 36.8814C27.5377 39.2724 22.6298 44.0518 18.0851 48.9092C16.9067 50.1676 18.7142 52.1574 19.9094 50.889C22.7027 47.922 26.0256 45.1605 29.9909 43.9823C32.4896 43.2352 35.201 43.0856 37.514 44.4521C39.8624 45.836 41.4757 48.2037 42.8297 50.5084C44.124 52.7126 45.4058 55.147 45.8972 57.68C46.0988 58.7161 46.2077 60.0191 45.6088 60.9348C44.7804 62.2108 43.215 61.8737 42.1266 61.128C41.0529 60.3917 40.467 59.1813 39.8636 58.0633C39.1426 56.7247 38.4838 55.3535 37.7128 54.0449C36.9418 52.7363 35.9987 51.7058 34.6102 51.0264C33.2216 50.347 31.6927 50.0903 30.1824 50.4361C27.1664 51.1205 24.9751 53.7904 23.6907 56.4624C21.4132 61.2113 21.0556 67.5145 24.4959 71.8171C27.0088 74.9594 31.1209 76.2639 34.8751 77.1986C36.9515 77.7137 39.0454 78.1364 41.1198 78.6708C42.9735 79.1465 45.1356 79.7943 46.6573 80.5645C48.4614 81.4745 49.8193 82.4451 50.9783 84.0598C50.8879 83.9344 51.1669 84.3468 51.2154 84.4245C51.3523 84.6471 51.4831 84.871 51.6019 85.0976C51.8196 85.5172 52.0782 86.1236 52.1789 86.411C52.6106 87.6934 52.7829 88.9697 52.3991 90.293C51.9769 91.7573 51.0468 93.1442 49.7195 93.9236C48.3922 94.703 46.7804 94.7869 45.2853 94.3395C42.1944 93.4164 39.7517 91.0548 36.7307 89.933C32.7843 88.4656 28.4318 88.9962 24.3922 89.7484C22.197 90.1569 20.0076 90.6209 17.7788 90.8472C15.5994 91.069 13.4048 90.9339 11.2378 90.6663C9.09015 90.4008 6.96079 90.0175 4.80847 89.7594C3.58667 89.6119 3.5383 91.4614 4.71134 91.6449L4.67737 91.6335Z" fill="white"/>
<path opacity="0.4" d="M100.349 68.6561C96.5684 70.9942 93.0167 73.7746 88.7522 75.1957C84.6698 76.5577 80.3632 77.154 76.4152 78.9286C74.5189 79.783 72.704 80.9227 71.2663 82.4342C70.136 83.6252 69.23 85.0067 68.3187 86.3642C66.6626 88.8338 64.5742 91.7148 61.2174 91.3306C59.655 91.1508 58.223 90.2155 57.243 89.0163C56.3927 87.978 56.0569 86.7313 55.9454 85.4163C55.7993 83.7424 56.202 81.7578 56.9535 80.3029C58.7848 76.7646 62.1604 74.301 65.3479 71.8411C68.4927 69.4158 71.977 66.903 73.921 63.3335C76.2273 59.0901 75.4123 54.1009 72.7619 50.1864C70.9015 47.4373 68.2316 44.9868 65.0383 43.9409C62.0549 42.9625 58.9742 43.6674 57.0047 46.1999C55.1281 48.6108 55.4769 51.9588 55.2888 54.8376C55.2037 56.1455 55.1366 57.4494 54.4018 58.5783C53.6671 59.7072 52.3491 60.4719 51.1677 59.5888C49.3553 58.2383 49.2762 55.0583 49.2677 53.0064C49.2502 50.2235 49.4624 47.3394 50.2342 44.6542C50.9199 42.2659 52.1924 40.1147 54.4342 38.9124C57.4758 37.2808 61.2596 37.2865 64.5645 37.9223C66.5758 38.3126 68.5292 38.9559 70.427 39.7189C72.0356 40.3687 72.8458 37.8014 71.2564 37.1536C68.2663 35.9428 65.2352 34.8043 62.1135 33.9701C59.2996 33.2197 56.3419 32.6463 53.4179 32.7732C51.2301 32.8704 49.019 33.2066 46.8321 32.9055C45.9823 32.7897 45.0835 32.5077 44.4453 31.9787C44.269 31.8343 44.1101 31.6545 43.9645 31.4781C43.8967 31.3983 43.8335 31.3111 43.7704 31.224C43.8807 31.3829 43.7578 31.1951 43.7405 31.1737C43.6362 31.0134 43.5452 30.8566 43.4516 30.6877C43.4078 30.6025 43.37 30.5161 43.3249 30.4249C43.3036 30.3854 43.1956 30.0933 43.2645 30.2929C43.3268 30.4624 43.2057 30.0531 43.1839 29.9821C43.1502 29.8568 43.1557 29.5081 43.1581 29.893C43.1584 29.7792 43.1707 29.6628 43.1649 29.5503C43.1549 29.2744 43.0991 29.767 43.1468 29.6111C43.1662 29.5563 43.2044 29.472 43.2046 29.4151C43.1993 29.391 43.316 29.1188 43.2201 29.3422C43.1416 29.5301 43.212 29.3629 43.2388 29.3128C43.3104 29.2085 43.3747 29.0996 43.4463 28.9953C43.552 28.8456 43.2646 29.1428 43.5138 28.9299C43.6313 28.8344 43.7403 28.7282 43.8565 28.6268C44.0369 28.4732 43.8385 28.6307 43.8064 28.6568C43.8719 28.6107 43.9433 28.5634 44.0161 28.522C44.133 28.452 44.2498 28.382 44.374 28.3167C44.6831 28.1474 45.0048 28.0069 45.3351 27.8772C45.3879 27.8592 45.5794 27.7854 45.3351 27.8772C45.4106 27.8479 45.4873 27.8246 45.5627 27.7954C45.7389 27.7375 45.915 27.6797 46.0925 27.6279C46.4881 27.509 46.8878 27.4082 47.2913 27.3255C50.3573 26.6681 53.2745 26.5679 56.4833 26.7067C62.12 26.9544 67.3485 29.5924 72.6975 31.1421C72.995 30.2297 73.2852 29.3126 73.5827 28.4002C67.9005 26.766 62.2716 24.8862 56.4488 23.7886C53.4491 23.2245 50.4197 23.3873 47.6356 22.169C47.2246 21.9879 46.7153 21.6453 46.3828 21.2763C46.2079 21.0811 46.3349 21.23 46.3722 21.285C46.3263 21.2193 46.2851 21.1462 46.2453 21.0792C46.2054 21.0122 46.1703 20.9378 46.1411 20.8621C46.1451 20.8801 46.2119 21.0992 46.163 20.9331C46.1471 20.8607 46.0574 20.4508 46.0692 20.562C46.0769 20.655 46.0705 20.252 46.0828 20.1356C46.1075 19.8458 46.0683 20.0693 46.1503 19.8111C46.1684 19.7502 46.1926 19.688 46.218 19.6318C46.1222 19.8552 46.2113 19.6586 46.2394 19.6145C46.3586 19.4112 46.4742 19.2783 46.8249 19.0113C46.6526 19.1442 47.0192 18.8927 47.0693 18.8626C47.2482 18.76 47.4298 18.6694 47.6174 18.5774C48.0465 18.3816 48.2047 18.3278 48.6544 18.197C49.4997 17.9473 50.3709 17.7867 51.244 17.6636C52.117 17.5405 52.7706 17.4784 53.5595 17.4308C55.6947 17.2946 57.8337 17.2903 59.9647 17.5089C65.8494 18.1127 71.5618 20.2015 76.6695 23.1505L78.2294 20.7021C76.1646 19.521 73.9491 18.6575 71.7523 17.7646C70.2735 17.1619 68.8356 16.487 67.3856 15.8148L66.7543 15.5181C66.7056 15.4972 66.4113 15.36 66.5438 15.4192C66.6484 15.4656 66.2628 15.2853 66.1922 15.2503C65.6434 14.9859 65.098 14.7082 64.5632 14.4217C63.4365 13.8172 62.3246 13.1652 61.3137 12.3709C61.1007 12.203 61.3862 12.4433 61.1912 12.2715C61.0821 12.1755 60.9717 12.0735 60.8672 11.9702C60.6743 11.7789 60.4981 11.5777 60.3253 11.363C60.2747 11.3047 60.4208 11.5694 60.3027 11.3174C60.2589 11.2323 60.2125 11.1351 60.164 11.0574C60.0358 10.8455 60.1164 11.1563 60.1574 11.0272C60.1641 11.0005 60.1349 10.9248 60.1284 10.8946C60.1046 10.7861 60.0818 11.1134 60.1367 11.0192C60.1555 10.9897 60.198 10.4938 60.1074 11.0003C60.1183 10.9348 60.1446 10.7963 60.1894 10.7421C60.0089 10.9526 60.1279 10.8063 60.2194 10.7355C60.2361 10.7255 60.3525 10.5671 60.2321 10.7074C60.0977 10.8698 60.315 10.626 60.3471 10.5999C60.657 10.3483 60.5175 10.4296 60.8193 10.2556C61.1938 10.0403 61.5844 9.84038 61.9941 9.69943C66.2842 8.16525 71.1555 10.724 74.9945 12.4489C79.6009 14.5164 84.019 16.9603 87.9178 20.1949C88.5254 20.6991 89.5403 20.3614 89.9291 19.7512C90.3976 19.0159 90.0947 18.236 89.4872 17.7318C85.6569 14.5515 81.348 12.1467 76.831 10.0848C72.3626 8.04381 67.186 5.47023 62.1419 6.66523C60.5262 7.04698 58.54 7.86432 57.6789 9.39394C56.9578 10.6715 57.2986 12.0561 58.124 13.182C59.7032 15.336 62.4804 16.6379 64.8167 17.7655C65.4361 18.0649 66.0528 18.3522 66.6769 18.6442C66.852 18.7256 67.0079 18.805 66.7255 18.6651C67.4042 19.0075 68.0905 19.3344 68.7841 19.6453C71.413 20.8157 74.1706 21.7113 76.6755 23.1492C78.2882 24.0762 79.8508 21.6398 78.2355 20.7007C73.1604 17.7572 67.6086 15.6835 61.8013 14.8289C59.3045 14.4634 56.795 14.3852 54.2764 14.5238C52.3913 14.6237 50.482 14.7859 48.6373 15.2434C46.7927 15.7009 44.798 16.4506 43.818 18.1266C42.88 19.7363 43.1164 21.8516 44.3446 23.2363C45.5124 24.5458 47.3231 25.17 48.9797 25.5502C50.709 25.9459 52.4741 26.1315 54.2406 26.3232C56.9289 26.6147 59.5709 27.3273 62.1742 28.0357C65.701 28.9954 69.1861 30.1096 72.6935 31.1241C74.4672 31.6364 75.3537 28.9005 73.5788 28.3821C70.1913 27.3981 66.8785 26.151 63.483 25.1877C61.4428 24.6078 59.3524 24.1148 57.2304 23.9953C53.8785 23.8059 50.4063 23.959 47.115 24.6219C44.4868 25.1512 40.4161 26.3653 40.4615 29.736C40.4877 31.6386 41.8226 33.5684 43.3939 34.5361C45.4591 35.8056 48.0214 35.809 50.364 35.6713C51.631 35.594 52.8969 35.4537 54.1643 35.4648C55.9225 35.475 57.6901 35.7296 59.4008 36.0978C63.1854 36.9121 66.834 38.2557 70.4217 39.6948C70.6997 38.8372 70.9718 37.981 71.2512 37.1295C64.895 34.6013 55.3683 33.0001 50.3867 39.0534C48.5666 41.2622 47.8271 44.1236 47.4698 46.9196C47.1084 49.7545 46.9447 52.7164 47.2721 55.5636C47.5621 58.0968 48.4485 61.3704 51.2665 62.082C53.1576 62.5558 54.9046 61.6522 56.0363 60.1513C56.9988 58.8837 57.3256 57.4151 57.4579 55.863C57.7012 53.0921 57.2879 49.6509 59.0765 47.4995C60.9962 45.1992 64.0204 45.8464 66.2834 47.2429C68.9465 48.886 71.1371 51.5622 72.1644 54.4446C72.3605 54.9953 72.5172 55.5674 72.6365 56.1414C72.7413 56.6491 72.8133 57.2082 72.8252 57.5216C72.8415 57.9982 72.8323 58.4742 72.7786 58.9473C72.7683 59.0444 72.6844 59.5811 72.7195 59.3964C72.6715 59.6661 72.6042 59.9337 72.5296 60.1966C72.0361 61.9105 70.975 63.4464 69.8039 64.7095C68.3668 66.2524 66.7194 67.5827 65.0642 68.8768C61.6942 71.5097 58.0171 74.0334 55.605 77.6494C52.9078 81.6883 52.2851 87.8731 56.1252 91.443C58.8349 93.9605 62.7931 94.648 65.991 92.6092C68.9278 90.729 70.3288 87.5258 72.4912 84.9255C75.1571 81.7212 79.2534 80.3941 83.1118 79.3027C85.3222 78.676 87.5372 78.0989 89.6947 77.2879C91.8522 76.477 93.8524 75.3786 95.7696 74.1025C97.6214 72.8725 99.3928 71.5338 101.242 70.2917C102.229 69.6253 101.414 67.9725 100.366 68.6207L100.349 68.6561Z" fill="white"/>
<path opacity="0.4" d="M52.3737 81.8946C50.086 78.8038 46.1425 77.5506 42.4592 76.4801C39.4269 75.5946 36.3947 74.7091 33.3564 73.8249C31.8033 73.3713 30.2222 72.905 28.8989 71.9773C25.3836 69.5175 24.6485 64.5485 25.206 60.2802C25.5842 57.3784 26.8295 54.0958 29.6423 53.3172C31.6178 52.7676 33.7592 53.7233 35.2153 55.1714C36.6727 56.6256 37.5897 58.5149 38.5595 60.3294C39.0069 61.1659 39.4883 62.0139 40.1923 62.6421C42.2941 64.5102 45.7736 63.7868 47.8357 61.8784C48.3061 61.4397 48.1037 59.9109 48.7382 59.9921C49.0549 60.0297 50.0662 61.2283 50.3452 61.3816C52.3667 62.5091 55.2076 61.7433 56.3964 59.7559C58.1007 56.9028 56.3261 53.0795 57.467 49.9526C58.2984 47.6838 60.7704 46.1527 63.1627 46.4148C66.111 46.7438 68.2251 49.3295 69.9837 51.7282C70.9068 52.9843 71.8578 54.31 72.0582 55.8582C72.2606 57.387 71.6936 58.9086 71.0715 60.3224C67.9203 67.4631 65.2202 68.7855 59.0642 73.556C57.5799 74.7112 53.6922 80.9023 53.0686 82.6829" fill="white"/>
<path opacity="0.4" d="M53.0508 81.5362C50.4468 77.1439 44.8844 75.9129 40.3504 74.5499C37.508 73.6983 34.6061 72.9483 31.8128 71.9469C29.6204 71.1605 28.0348 69.7536 27.1652 67.5631C26.3513 65.512 26.2594 63.1942 26.4706 61.0244C26.6646 59.0353 27.1701 56.7437 28.6929 55.3335C30.2512 53.8838 32.5793 54.514 34.0372 55.7974C36.1018 57.6104 36.8661 60.3549 38.4311 62.531C39.9962 64.707 42.5209 65.4012 45.0113 64.7886C46.2235 64.4895 47.351 63.9185 48.3309 63.1336C48.7859 62.7678 49.1208 62.3716 49.2995 61.8077C49.3633 61.6104 49.3872 61.4029 49.4316 61.2035C49.4485 61.1366 49.4975 60.9868 49.4997 60.9105C49.4981 60.7023 49.5778 60.8364 49.4282 60.9578L48.8407 61.2644L48.2257 61.1284L48.3222 61.1955C48.2558 61.0648 48.4339 61.3036 48.4659 61.3345C48.6488 61.5089 48.8211 61.6921 49.004 61.8666C49.4131 62.2692 49.8092 62.5547 50.344 62.7842C51.5023 63.2743 52.8764 63.3124 54.0854 62.9699C56.8489 62.1959 58.3274 59.778 58.486 56.9942C58.6135 54.6723 57.7382 51.7943 59.0553 49.7028C60.3911 47.5818 63.0724 47.1798 65.127 48.458C66.2128 49.1347 67.0893 50.0914 67.8905 51.0774C68.7939 52.1861 69.7373 53.3619 70.3717 54.65C71.6457 57.2505 69.8129 60.3215 68.534 62.5878C67.5096 64.4063 66.2583 66.022 64.7235 67.4349C63.0403 68.9753 61.1723 70.3037 59.3495 71.6663C58.4364 72.3543 57.6635 72.9925 56.9373 73.8731C56.2125 74.7597 55.5489 75.696 54.9072 76.6464C53.7343 78.3902 52.4731 80.2482 51.751 82.24C51.1275 83.9637 53.8291 84.8337 54.4479 83.1174C54.4855 83.0017 54.5377 82.8954 54.5827 82.7843C54.7154 82.4707 54.4909 82.9689 54.5907 82.7636C54.6243 82.6867 54.6651 82.6145 54.6999 82.5436C54.8895 82.1732 55.0864 81.8075 55.2833 81.4418C55.7928 80.5205 56.3317 79.6181 56.8985 78.7284C57.8248 77.2665 58.7861 75.62 59.9513 74.6173C63.2711 71.7553 66.998 69.5744 69.5563 65.9073C71.0121 63.8168 72.2981 61.353 73.0359 58.9153C73.4935 57.4115 73.5752 55.8579 73.0407 54.3645C72.5174 52.8938 71.5629 51.6384 70.6317 50.4031C69.0771 48.3322 67.2092 46.2103 64.6561 45.415C62.1636 44.6378 59.3328 45.4204 57.5912 47.3844C55.7187 49.4973 55.7332 52.1229 55.8762 54.7896C55.9899 56.9194 56.043 59.549 53.654 60.4236C53.1822 60.5972 52.6673 60.6603 52.1687 60.625C51.938 60.6063 51.7287 60.5704 51.5055 60.4995C51.377 60.4584 50.8862 60.2002 51.0832 60.3526C50.3224 59.7811 49.7968 58.7596 48.7293 58.7424C48.1166 58.7322 47.6157 59.0892 47.3191 59.6033C47.129 59.9422 46.8699 60.6565 46.9003 61.0543C46.9197 61.3154 46.8589 61.095 47.0072 60.9675C46.9063 61.0529 46.8068 61.1444 46.6999 61.2312C46.5182 61.3787 46.3325 61.5081 46.1309 61.6221C45.6408 61.9135 45.1255 62.1472 44.5725 62.2945C43.6318 62.54 42.6015 62.5777 41.7084 62.1492C40.4624 61.5457 39.8764 60.0762 39.2651 58.922C37.8738 56.3032 36.267 53.7067 33.4663 52.4415C30.8661 51.2584 27.9774 51.9779 26.1813 54.1814C24.5644 56.1685 23.964 58.8602 23.7774 61.3721C23.5851 64.0307 23.8833 66.8022 25.0023 69.2409C26.2169 71.8861 28.4278 73.591 31.1319 74.53C34.3277 75.6448 37.663 76.4193 40.9118 77.3455C43.5484 78.0908 46.2952 78.736 48.7103 80.0799C49.8497 80.7132 50.9219 81.5004 51.8198 82.4397C52.3991 83.0449 53.5143 82.3313 53.0561 81.5603L53.0508 81.5362ZM27.1732 15.2896C27.0425 15.0088 26.8938 14.7319 26.7344 14.4638C26.5365 14.1346 26.324 13.796 26.0499 13.5216C25.879 13.3445 25.6206 13.1992 25.3626 13.1993L25.0965 13.2201C24.9644 13.2492 24.8436 13.3012 24.7367 13.3879C24.5678 13.5074 24.412 13.6871 24.3568 13.8951C24.2916 14.1433 24.2768 14.4499 24.427 14.6759C24.5412 14.8529 24.6542 15.0238 24.7851 15.1908C24.8642 15.2934 24.9447 15.4021 25.0191 15.512L24.8656 15.2995C25.0749 15.5945 25.2615 15.9009 25.4328 16.2233C25.5503 16.4438 25.7659 16.6237 26.0037 16.704C26.2416 16.7842 26.5523 16.7662 26.7633 16.6375C26.9743 16.5088 27.1708 16.3138 27.2421 16.0643C27.3167 15.8014 27.2926 15.5476 27.1758 15.3016L27.1732 15.2896ZM35.9467 13.1328C36.1183 12.7663 35.984 12.2967 35.9129 11.9143L35.7503 11.0276C35.6417 10.4449 35.515 9.86622 35.3297 9.3068C35.2416 9.04819 35.1314 8.83237 34.8971 8.68186C34.692 8.55016 34.3881 8.4845 34.1506 8.54954C33.9131 8.61458 33.6614 8.75858 33.5282 8.98386C33.3856 9.22385 33.3611 9.45676 33.3964 9.73332C33.463 10.3253 33.5884 10.8979 33.733 11.4726L33.9491 12.316C34.0455 12.6991 34.1177 13.2014 34.4337 13.4666C34.6886 13.682 34.9503 13.8139 35.2925 13.7384C35.6348 13.6629 35.8233 13.4317 35.9587 13.1301L35.9467 13.1328ZM44.3962 10.0996C44.4332 9.6933 44.4895 9.28909 44.5604 8.89429L44.5145 9.14455C44.6314 8.49949 44.8089 7.87266 44.9791 7.24111C45.1122 6.75676 44.8769 6.17044 44.3605 6.02528C43.8441 5.88013 43.3474 6.14137 43.1496 6.64632C42.9517 7.15127 42.8264 7.6718 42.7218 8.2004C42.6064 8.79458 42.5103 9.39082 42.4662 9.99455C42.4264 10.5026 42.8712 11.011 43.3813 11.0123C43.924 11.0189 44.3436 10.6356 44.3949 10.0935L44.3962 10.0996ZM53.2406 9.84813L53.5167 9.52813C53.6163 9.43665 53.6939 9.33107 53.7422 9.20667C53.8111 9.09035 53.8461 8.96257 53.8471 8.82333C53.8601 8.68144 53.8371 8.5475 53.7767 8.41548C53.7417 8.28418 53.6719 8.16687 53.5748 8.06823L53.3739 7.89771C53.2201 7.79894 53.0575 7.74634 52.8729 7.73653L52.6008 7.75864C52.4207 7.79838 52.2631 7.88369 52.1268 8.00855L51.8507 8.32855C51.7511 8.42003 51.6735 8.52562 51.6252 8.65002C51.5563 8.76633 51.5213 8.89411 51.5203 9.03335C51.5073 9.17524 51.5303 9.30918 51.5907 9.44121C51.6257 9.5725 51.6954 9.68982 51.7926 9.78846L51.9935 9.95897C52.1473 10.0577 52.3099 10.1103 52.4945 10.1202L52.7666 10.098C52.9467 10.0583 53.1043 9.97299 53.2406 9.84813ZM27.628 98.3489C27.3484 98.7392 27.098 99.1483 26.8843 99.5809C26.7496 99.857 26.621 100.132 26.507 100.416C26.3929 100.7 26.3629 101.023 26.3228 101.329C26.293 101.538 26.4083 101.834 26.5593 101.978C26.697 102.118 26.8614 102.208 27.0514 102.242C27.2413 102.276 27.4581 102.26 27.625 102.16L27.8153 102.023C27.9303 101.916 28.0099 101.791 28.0589 101.641C28.0764 101.605 28.0938 101.57 28.1052 101.536L28.0067 101.747C28.0576 101.635 28.1146 101.521 28.1728 101.414C28.2612 101.242 28.323 101.064 28.3894 100.879C28.4767 100.645 28.5712 100.416 28.6791 100.19L28.5759 100.408C28.7521 100.035 28.9503 99.6748 29.1778 99.334C29.4415 98.9282 29.3249 98.3094 28.8995 98.062C28.6971 97.9424 28.4439 97.8782 28.205 97.9372C27.9662 97.9962 27.7758 98.133 27.6267 98.3428L27.628 98.3489ZM39.2999 101.24C39.1633 101.794 39.0692 102.371 39.0439 102.946C39.0185 103.52 39.0264 104.131 39.2031 104.68C39.2786 104.91 39.3848 105.107 39.5899 105.239C39.7729 105.357 40.0442 105.417 40.2577 105.357C40.4712 105.297 40.6955 105.172 40.8147 104.969L40.9145 104.764C40.9622 104.608 40.9726 104.454 40.9383 104.297L40.9264 104.243C40.9435 104.321 40.9487 104.402 40.9538 104.483C40.9324 104.241 40.9183 104.004 40.8788 103.767C40.8539 103.595 40.8337 103.416 40.8147 103.244L40.8362 103.485C40.8109 103.169 40.805 102.854 40.8231 102.534C40.8287 102.388 40.8391 102.234 40.8581 102.09C40.8663 102.013 40.8745 101.935 40.8887 101.856C40.9008 101.797 40.9508 101.507 40.8989 101.759C40.9428 101.528 40.9546 101.323 40.8444 101.108C40.7482 100.927 40.5592 100.753 40.358 100.697C39.9422 100.58 39.4144 100.785 39.2999 101.24ZM52.526 99.6425C52.6883 100.384 52.8038 101.142 52.8687 101.899L52.8506 101.644C52.8766 101.935 52.8786 102.231 52.9239 102.525C52.9534 102.746 53.1501 103.012 53.3379 103.122C53.5256 103.232 53.7122 103.28 53.929 103.263C54.3864 103.226 54.788 102.846 54.8032 102.369C54.8106 102.058 54.766 101.739 54.73 101.431C54.7013 101.185 54.6725 100.938 54.6318 100.695C54.5562 100.206 54.4567 99.7221 54.3392 99.2425C54.2216 98.7629 53.7277 98.4043 53.2334 98.5323C52.739 98.6603 52.4139 99.1301 52.526 99.6425ZM66.7324 96.2555C66.7266 96.7181 66.8716 97.179 67.0052 97.6171C67.0641 97.8 67.1244 97.9889 67.1893 98.1705C67.2502 98.334 67.3039 98.4928 67.3708 98.6549C67.4378 98.8171 67.5282 98.9425 67.6486 99.0613C67.9126 99.319 68.2678 99.4176 68.6175 99.2899C68.9384 99.1748 69.2072 98.8501 69.2114 98.4953C69.2151 98.3681 69.22 98.247 69.1923 98.1204C69.1686 98.0119 69.1135 97.904 69.0717 97.7994C69.0326 97.707 68.9995 97.6132 68.9664 97.5194L69.0565 97.7586C68.9584 97.4832 68.8651 97.2005 68.7851 96.9211C68.7487 96.7838 68.7124 96.6465 68.6807 96.5018C68.6332 96.2848 68.569 96.0778 68.4808 95.8761L68.3433 95.6789C68.2684 95.5848 68.1678 95.5148 68.0537 95.4774C67.8772 95.39 67.6607 95.3493 67.4652 95.4051C67.0789 95.5092 66.7487 95.8412 66.741 96.2662L66.7324 96.2555ZM76.9646 90.7563C77.1315 91.2314 77.3232 91.6757 77.6082 92.0867C77.7657 92.3174 77.9279 92.5407 78.1187 92.7513C78.3096 92.962 78.5265 93.1479 78.7481 93.3265C78.9245 93.4709 79.2751 93.5199 79.4886 93.4602C79.7021 93.4004 79.881 93.2978 80.0261 93.1267C80.1558 92.9717 80.2603 92.7591 80.2588 92.5509C80.2601 92.2979 80.1954 92.0025 80.0005 91.8306C79.7197 91.5829 79.465 91.3105 79.247 91.0048L79.3945 91.2187C79.1653 90.8901 78.9814 90.5389 78.8416 90.159L78.9344 90.4102C78.9344 90.4102 78.9178 90.3633 78.9125 90.3392C78.8835 90.2066 78.8318 90.0853 78.7467 89.984C78.6783 89.8727 78.5898 89.7848 78.4799 89.7143C78.2749 89.5826 77.971 89.5169 77.7335 89.582C77.496 89.647 77.2443 89.791 77.1111 90.0163C76.9872 90.2269 76.8952 90.5252 76.9793 90.7657L76.9646 90.7563ZM87.2917 85.489L87.7931 85.7386L88.0402 85.861C88.0402 85.861 88.0828 85.8832 88.1035 85.8913L88.1181 85.9007L88.3432 86.009L88.3552 86.0063C88.4412 86.0253 88.5212 86.0456 88.6058 86.0585C88.6518 86.0673 88.6965 86.0701 88.7424 86.0789L88.9892 86.056L89.2228 85.9729L89.4191 85.8348C89.5093 85.758 89.5762 85.6611 89.6211 85.5501C89.6633 85.4839 89.6908 85.4084 89.6917 85.326C89.7179 85.2444 89.7201 85.1681 89.7016 85.0837C89.7084 85 89.6913 84.9217 89.6488 84.8426C89.6224 84.722 89.5566 84.6228 89.4682 84.5349C89.4363 84.504 89.4103 84.4718 89.3797 84.447C89.3072 84.3745 89.2347 84.302 89.1421 84.2529L89.0849 84.2213L88.8378 84.0989L88.3423 83.848C88.2385 83.7762 88.1219 83.7324 87.9926 83.7167C87.8653 83.6816 87.74 83.6839 87.6079 83.7131C87.4758 83.7422 87.361 83.7928 87.2601 83.8783C87.148 83.9409 87.0604 84.0298 86.9975 84.1448L86.8896 84.3708C86.8385 84.54 86.8248 84.7073 86.863 84.8821L86.9545 85.1274C87.0381 85.2795 87.1465 85.401 87.293 85.495L87.2917 85.489Z" fill="white"/>
</svg>
