<svg width="161" height="225" viewBox="0 0 161 225" fill="none" xmlns="http://www.w3.org/2000/svg">
<g opacity="0.7" clip-path="url(#clip0_0_205)">
<path d="M79.5 115.372C79.8628 116.323 80.1705 117.339 80.6346 118.237C81.0714 119.095 82.0536 119.607 83.0038 119.193C88.8138 116.601 94.4239 113.659 99.8144 110.274C101.942 108.936 104.1 107.4 106.558 106.717C107.537 106.446 108.56 106.373 109.563 106.546C111.102 106.811 112.545 107.242 113.929 106.22C114.835 105.556 115.271 104.441 115.355 103.351C115.427 102.402 115.184 101.709 116.001 101.104C118.493 99.2599 121.313 97.7519 123.95 96.1046C126.587 94.4574 129.287 92.7629 131.964 91.0884C134.42 89.5492 137.198 88.1621 139.129 85.9471C141.06 83.7321 141.662 80.4803 140.063 77.9571C139.753 77.4692 139.363 77.0147 138.904 76.6624C138.846 76.6248 138.105 76.1443 138.091 76.1605C138.262 76.7079 138.361 76.8206 138.391 76.4773C138.429 76.2752 138.48 76.0781 138.53 75.8809C138.935 74.1593 139.361 72.4389 139.779 70.7223L138.048 72.4598C140.106 71.9781 142.172 71.4927 144.234 71.0197C145.228 70.7831 146.218 70.559 147.212 70.3224C147.597 70.2313 148.081 70.2016 148.444 70.0367L148.599 70.0122C148.933 69.9945 148.827 69.9155 148.257 69.7651C148.257 69.7651 148.392 70.059 148.394 70.0889C148.714 73.3211 151.781 75.9439 154.944 75.9738C155.204 75.9771 156.5 75.8189 156.529 75.8377C156.913 76.1086 156.514 77.1149 156.384 77.4179C155.753 78.9466 154.987 80.305 154.966 82.0079C154.953 83.4599 155.332 84.8382 155.477 86.2745C155.603 87.4709 155.368 88.3766 154.058 88.6234C152.213 88.9735 150.282 88.0997 148.505 87.7595C146.345 87.3444 144.373 87.5417 142.509 88.7469C141.786 89.2091 141.698 90.2176 141.946 90.9487C142.901 93.7559 144.456 96.2978 146.47 98.4591C146.455 97.6699 146.443 96.8896 146.428 96.1005C143.309 99.4816 139.663 102.085 135.708 104.374C134.042 105.34 132.764 106.565 132.221 108.448C131.82 109.838 131.976 111.518 131.366 112.831C130.826 113.99 129.128 113.544 128.029 113.463C125.922 113.294 124.045 113.472 122.166 114.518C121.38 114.955 119.261 116.63 118.293 115.761C117.821 115.331 117.866 113.907 117.737 113.311C117.524 112.348 117.237 111.478 116.577 110.725C115.713 109.739 114.147 109.919 113.61 111.159C112.556 113.59 111.396 115.943 110.463 118.416C110.077 119.427 109.857 120.708 108.926 121.362C107.764 122.176 106.401 122.786 105.16 123.489C100.195 126.27 95.2257 129.042 90.3039 131.877L92.7977 132.884C91.7062 130.217 90.2224 127.625 88.6731 125.194C88.3625 124.706 87.5433 124.382 86.9898 124.514C84.6983 125.054 82.6113 126.075 80.7105 127.461L83.7031 128.669L82.9899 125.604C82.6254 123.992 80.7654 123.481 79.669 124.742C77.6604 127.042 75.6754 129.373 73.6955 131.691L77.0028 132.084C74.7719 127.66 72.2809 123.377 69.5772 119.226C69.5872 120.027 69.6022 120.816 69.6121 121.618C71.9322 117.936 74.0018 114.102 76.2484 110.369C77.2838 108.648 74.8378 106.732 73.6949 108.468C71.3189 112.091 68.7621 115.605 66.4682 119.276C65.9713 120.076 65.9937 120.882 66.5032 121.668C69.038 125.519 71.3565 129.493 73.471 133.595C74.156 134.915 75.8071 135.154 76.7783 133.987C78.7384 131.646 80.7109 129.31 82.6423 126.95L79.3215 126.088C79.5604 127.113 79.7957 128.129 80.0259 129.157C80.345 130.54 81.801 131.244 83.0186 130.365C84.5352 129.266 86.1754 128.579 87.96 128.038L85.7956 127.491C87.3269 129.66 88.3811 131.899 89.3097 134.376C89.6465 135.266 90.938 135.874 91.8035 135.383C97.1828 132.385 102.52 129.311 107.861 126.247C109.08 125.543 110.503 124.928 111.582 124.015C112.661 123.102 113.119 121.895 113.569 120.619C114.548 117.889 115.549 115.067 116.836 112.454L113.869 112.888C114.721 113.921 114.217 115.798 114.587 117.056C115.103 118.831 116.626 120.105 118.476 120.301C120.325 120.497 121.96 119.699 123.522 118.829C124.255 118.414 125.003 117.962 125.841 117.843C126.55 117.738 127.278 117.822 127.991 117.87C129.598 117.983 131.262 118.009 132.726 117.222C134.189 116.435 135.132 115.032 135.537 113.383C135.839 112.149 135.796 110.856 136.098 109.622C136.452 108.17 137.918 107.681 139.108 106.979C143.022 104.666 146.48 101.791 149.547 98.4325C150.077 97.8561 150.05 96.6487 149.506 96.074C147.696 94.1468 146.339 91.9751 145.393 89.5051L144.83 91.7069C146.313 90.6741 148.723 91.7267 150.263 92.1161C152.196 92.6066 154.361 92.8131 156.236 91.9751C157.94 91.2201 159.076 89.5906 159.297 87.751C159.502 86.0936 158.996 84.4902 158.825 82.8478C158.638 81.0681 159.685 79.8379 160.182 78.2114C160.745 76.3504 160.509 74.0436 158.838 72.8111C158.007 72.193 157.007 72.05 155.99 72.0892C155.221 72.1268 154.529 72.2245 153.816 71.8352C152.308 71.0089 152.469 69.3701 151.761 68.0183C150.446 65.5084 148.025 66.0825 145.747 66.606C142.998 67.2366 140.246 67.8584 137.497 68.489C136.525 68.7057 135.999 69.2908 135.766 70.2265C135.414 71.6574 135.061 73.0883 134.699 74.523C134.354 75.899 133.884 77.3695 134.815 78.6372C135.329 79.338 136.313 79.5608 136.701 80.3049C137.09 81.049 136.804 82.0794 136.379 82.756C135.056 84.8468 132.222 86.1026 130.197 87.366C127.528 89.0368 124.86 90.7077 122.195 92.3873C119.531 94.0669 116.987 95.6433 114.389 97.2844C113.33 97.9515 112.312 98.6936 111.763 99.8568C111.307 100.825 111.357 101.796 111.28 102.83L111.256 103.089C111.186 103.387 111.201 103.422 111.279 103.193L111.34 103.043C111.788 102.883 111.857 102.802 111.521 102.79C111.184 102.531 110.102 102.463 109.705 102.405C108.479 102.244 107.196 102.334 105.997 102.627C103.497 103.234 101.297 104.5 99.1415 105.87C93.4432 109.479 87.6655 112.925 81.5822 115.871L83.9514 116.828C83.3978 115.792 82.6679 114.852 82.0042 113.874C81.0436 112.464 78.9205 113.862 79.4963 115.363L79.5 115.372Z" fill="#472D30"/>
<path d="M84.325 127.847C95.1566 145.828 106.865 163.272 118.234 180.912C120.569 184.537 122.785 188.513 127.573 188.814C131.557 189.074 135.362 187.354 138.867 185.659C148.073 181.189 156.693 175.409 165.334 169.951C170.287 166.824 175.221 163.653 180.135 160.46C182.093 159.184 184.228 158.008 185.719 156.166C186.378 155.359 186.878 154.372 187.061 153.344C187.164 152.784 187.162 152.196 187.077 151.632C187.047 151.439 186.995 151.244 186.956 151.054L186.902 150.757C186.854 150.353 186.849 150.366 186.878 150.798L186.218 151.677L186.05 151.718C186.27 151.676 186.486 151.625 186.698 151.566C187.093 151.45 187.399 151.32 187.751 151.078C188.148 150.795 188.46 150.436 188.723 150.034C189.482 148.854 189.534 147.324 189.009 146.039C188.542 144.915 187.61 144.009 186.867 143.064C186.125 142.119 185.329 141.073 184.547 140.083C181.6 136.356 178.725 132.556 175.903 128.734C170.039 120.792 164.385 112.687 158.743 104.588C155.089 99.3426 151.44 94.0849 147.777 88.8434C146.349 86.795 143.315 89.2101 144.74 91.2497C152.723 102.745 160.608 114.302 168.734 125.695C172.312 130.715 175.959 135.674 179.609 140.642C180.496 141.856 181.393 143.066 182.32 144.252C182.781 144.852 183.243 145.451 183.713 146.047C183.954 146.348 184.204 146.644 184.449 146.953C184.529 147.044 184.992 147.818 185.063 147.839C184.908 147.791 185.494 147.491 185.488 147.452C185.475 147.375 184.357 147.757 184.22 147.825C183.385 148.242 182.791 149.032 182.627 149.959C182.434 151.012 183.128 152.184 182.627 153.12C182.126 154.056 181.097 154.7 180.27 155.258C178.634 156.366 176.954 157.421 175.302 158.495C172.022 160.622 168.734 162.731 165.439 164.823C158.875 168.997 152.311 173.17 145.623 177.148C142.482 179.019 139.275 180.784 136.004 182.422C133.673 183.598 131.086 184.925 128.406 184.917C125.097 184.907 123.755 182.089 122.152 179.629L115.684 169.732C106.142 155.077 96.7522 140.295 86.7343 125.955C85.5921 124.313 83.365 126.22 84.3462 127.848L84.325 127.847Z" fill="#472D30"/>
<path d="M152.603 156.981C143.792 157.325 134.659 155.451 126.734 151.607C123.037 149.81 118.807 147.124 117.68 142.892C116.63 138.937 119.245 135.925 122.985 134.976C127.851 133.736 132.618 135.667 136.533 138.487C138.319 139.774 140.165 137.895 139.637 136.043C138.485 131.945 138.86 127.137 140.904 123.366C141.813 121.688 143.254 120.022 145.211 119.666C146.593 119.419 148.024 119.772 149.233 120.478C151.787 121.965 153.717 124.782 154.492 127.603C154.982 129.389 154.827 131.48 154.666 133.387C154.451 135.968 154.205 138.552 153.85 141.12C153.126 146.418 151.035 151.831 152.177 157.193C152.645 159.391 156.023 158.999 155.686 156.725C155.305 154.149 156.037 151.545 156.597 149.044C157.228 146.225 157.765 143.404 158.117 140.537C158.469 137.67 158.81 134.654 158.92 131.704C159.01 129.362 158.79 127.141 157.938 124.941C156.516 121.278 153.69 117.861 150.031 116.275C145.421 114.277 140.547 116.203 137.908 120.351C134.66 125.471 134.24 131.899 135.858 137.628L138.962 135.183C134.602 132.045 129.391 129.92 123.94 130.635C118.958 131.284 113.91 134.503 113.43 139.914C112.43 151.155 126.647 156.727 135.477 158.689C141.218 159.96 147.115 160.378 152.978 159.931C154.918 159.779 154.47 156.901 152.578 156.971L152.603 156.981Z" fill="#472D30"/>
<path d="M105.497 126.859C107.764 128.695 109.879 130.73 111.819 132.913C112.539 133.733 113.26 134.604 113.579 135.646C113.894 136.68 113.787 137.789 113.793 138.872C113.829 146.666 120.066 153.345 127.254 156.356C134.442 159.366 142.471 159.467 150.26 159.516C151.734 159.53 153.449 159.411 154.275 158.192C154.682 157.596 154.771 156.856 154.858 156.137C155.73 148.731 156.611 141.321 157.484 133.915C157.693 132.122 157.911 130.325 157.758 128.53C157.325 123.28 153.38 118.396 148.248 117.26C143.117 116.124 137.254 119.152 135.594 124.144C134.793 126.561 134.92 129.172 135.074 131.721C131.784 130.567 128.34 129.685 124.855 129.822C121.37 129.96 117.826 131.197 115.464 133.76C113.464 131.873 111.458 129.997 109.458 128.11C109.236 127.904 109.004 127.672 108.976 127.364C108.959 127.082 109.129 126.824 109.288 126.591C111.323 123.722 113.364 120.841 115.399 117.972C117.586 119.666 120.739 120.011 123.244 118.833C124.631 118.182 125.822 117.118 127.295 116.719C130.05 115.983 133.714 117.505 135.419 115.22C136.535 113.713 135.871 111.567 136.337 109.747C137.35 105.784 142.82 105.165 145.593 102.158C146.667 100.989 147.572 99.3027 149.159 99.1966C150.156 99.1348 151.059 99.7532 151.778 100.45C153.985 102.58 155.183 105.522 156.639 108.219C160.116 114.676 165.262 120.052 169.711 125.88C171.996 128.876 174.102 132.01 176.214 135.132C178.625 138.715 181.048 142.303 183.459 145.887C183.931 146.585 184.418 147.39 184.248 148.206C184.112 148.811 183.644 149.289 183.416 149.872C183.098 150.678 183.28 151.593 183.057 152.431C182.864 153.144 182.393 153.736 181.903 154.285C175.355 161.706 165.203 164.511 156.501 169.22C148.927 173.326 142.238 179.03 134.326 182.412C131.954 183.419 129.356 184.234 126.827 183.728C122.98 182.965 120.381 179.473 118.148 176.237C113.787 169.887 109.633 158.966 105.276 152.625C101.141 146.613 101.714 146.09 97.5919 140.083C96.9742 139.188 94.7824 137.02 95.2898 136.05C95.5561 135.534 92.7226 135.333 93.2217 135.049L107.739 126.836" fill="#472D30"/>
<path d="M104.554 128.117C106.604 129.88 108.536 131.776 110.305 133.824C111.04 134.679 111.794 135.506 111.948 136.67C112.125 137.937 111.902 139.261 112.014 140.547C112.398 144.878 114.682 148.99 117.679 152.056C124.568 159.129 134.335 160.961 143.831 161.307C146.288 161.4 148.786 161.516 151.251 161.409C153.716 161.302 155.98 160.092 156.578 157.462C157.169 154.865 157.26 152.089 157.573 149.446C157.912 146.595 158.247 143.736 158.594 140.882C158.929 138.095 159.306 135.311 159.577 132.52C159.81 130.127 159.78 127.795 159.115 125.474C157.931 121.4 154.912 117.869 151.027 116.141C146.686 114.215 141.501 115.044 137.763 117.892C135.943 119.275 134.451 121.21 133.715 123.393C132.767 126.172 132.888 129.106 133.041 131.995L135.83 129.829C128.407 127.239 119.727 126.36 113.798 132.537L116.687 132.115C115.632 131.117 114.573 130.131 113.519 129.132L112.021 127.723C111.695 127.417 110.991 126.952 110.874 126.578L111.02 127.653C110.948 128.189 111.346 127.276 111.476 127.097C111.742 126.726 112.004 126.346 112.27 125.975C112.798 125.224 113.338 124.477 113.866 123.726C114.935 122.229 115.991 120.726 117.059 119.229L114.179 119.647C117.345 121.969 121.581 122.236 124.975 120.257C125.802 119.771 126.611 119.169 127.522 118.834C128.293 118.558 129.125 118.545 129.941 118.57C131.698 118.62 133.554 118.782 135.187 118.005C136.965 117.157 137.941 115.419 138.132 113.51C138.271 112.159 137.933 110.609 138.727 109.414C139.456 108.309 140.818 107.648 141.954 107.041C143.409 106.258 144.947 105.501 146.202 104.42C146.905 103.812 147.503 103.103 148.084 102.381C148.398 102 148.931 101.236 149.351 101.254C150.014 101.282 150.798 102.374 151.15 102.814C151.823 103.643 152.393 104.548 152.906 105.487C155.04 109.415 157.122 113.221 159.827 116.793C162.593 120.432 165.613 123.87 168.373 127.522C171.114 131.151 173.614 134.945 176.154 138.711C177.445 140.631 178.745 142.548 180.036 144.469C180.672 145.407 181.365 146.332 181.947 147.314C182.356 148.008 182.005 148.033 181.619 148.827C181.174 149.75 181.259 150.654 181.075 151.631C180.916 152.473 180.141 153.154 179.559 153.752C178.166 155.191 176.571 156.447 174.908 157.567C167.925 162.311 159.659 164.81 152.427 169.163C148.533 171.5 144.829 174.137 140.97 176.531C139.016 177.744 137.004 178.867 134.928 179.842C133.164 180.674 131.337 181.481 129.388 181.731C125.751 182.191 123.229 179.637 121.21 176.951C119.191 174.265 117.485 171.271 115.935 168.231C114.198 164.847 112.584 161.39 110.821 158.017C109.099 154.719 107.038 151.69 105.078 148.535C103.624 146.208 102.431 143.74 100.972 141.426C100.108 140.047 99.2004 138.738 98.1793 137.478C98.0288 137.294 97.2259 136.158 97.2734 136.148C97.1734 136.18 97.2393 137.454 97.3867 136.244C97.4559 135.678 97.2693 135.044 96.9137 134.596C96.527 134.099 95.9398 133.811 95.3548 133.626C94.9869 133.514 94.6038 133.439 94.2271 133.33C93.9215 133.243 94.226 133.279 94.424 133.453L95.2486 134.859L95.2512 134.817L94.4761 136.737C95.246 136.069 96.6974 135.473 97.673 134.924C98.8824 134.245 100.097 133.554 101.306 132.874L108.569 128.766C109.562 128.21 110.161 127.139 109.682 126.01C109.277 125.056 107.915 124.333 106.926 124.898L94.8239 131.744C93.2742 132.619 89.6514 134.086 91.5243 136.452C91.9906 137.039 92.6429 137.237 93.3266 137.411C93.3977 137.433 94.1089 137.575 93.7882 137.525C93.9054 137.558 94.0264 137.6 94.1474 137.641C93.9232 137.478 93.8733 137.458 94.019 137.582L93.34 136.713L93.3735 136.792C93.3234 136.431 93.2734 136.07 93.2196 135.701C93.368 134.956 93.1642 135.838 93.1452 135.939C93.1095 136.171 93.1099 136.439 93.1267 136.649C93.1518 137 93.2494 137.351 93.3782 137.679C93.6642 138.425 94.154 139.116 94.6352 139.738C95.6398 141.057 96.6171 142.336 97.5104 143.733C99.0087 146.093 100.237 148.619 101.713 150.998C103.638 154.095 105.64 157.057 107.309 160.304C109.081 163.746 110.726 167.252 112.503 170.681C114.185 173.912 116.008 177.084 118.254 179.963C120.551 182.913 123.607 185.633 127.504 185.93C131.783 186.251 135.961 184.145 139.604 182.143C143.75 179.865 147.624 177.165 151.584 174.594C155.334 172.164 159.218 170.07 163.27 168.204C167.322 166.338 171.1 164.701 174.797 162.532C176.658 161.442 178.448 160.257 180.105 158.882C181.664 157.589 183.393 156.09 184.435 154.336C184.948 153.477 185.166 152.579 185.227 151.582C185.252 151.251 185.221 150.861 185.334 150.544C185.485 150.098 185.862 149.721 186.04 149.263C186.926 146.996 185.325 145.052 184.127 143.278C178.861 135.453 173.758 127.528 167.787 120.209C164.913 116.678 161.97 113.155 159.565 109.27C157.319 105.637 155.944 101.087 152.47 98.358C150.76 97.008 148.57 96.7402 146.721 97.9804C145.21 98.9944 144.384 100.699 142.9 101.753C140.283 103.618 136.842 104.491 135.11 107.418C134.154 109.033 134.158 110.673 134.072 112.487C134.045 112.984 134.067 113.667 133.71 114.066C133.289 114.535 132.383 114.496 131.808 114.502C130.009 114.523 128.243 114.281 126.488 114.82C124.595 115.397 123.129 116.981 121.159 117.353C120.372 117.504 119.561 117.489 118.78 117.308C117.999 117.128 117.264 116.786 116.623 116.305C115.738 115.658 114.391 115.817 113.742 116.723C112.594 118.347 111.436 119.975 110.284 121.591L108.421 124.211C107.904 124.937 107.257 125.677 107.019 126.552C106.452 128.622 108.4 129.923 109.708 131.154C111.206 132.563 112.707 133.982 114.213 135.387C115.091 136.213 116.409 135.694 117.102 134.965C121.567 130.3 128.912 131.735 134.294 133.581C135.816 134.102 137.181 132.985 137.082 131.415C136.859 127.656 136.856 123.784 139.983 121.174C142.499 119.072 146.015 118.301 149.101 119.511C152.188 120.721 154.694 123.654 155.53 126.935C156.058 129.004 155.846 131.13 155.601 133.228C155.321 135.681 155.02 138.134 154.74 140.587C154.152 145.6 153.568 150.62 152.972 155.636C152.877 156.41 152.942 157.147 152.098 157.423C151.181 157.719 150.052 157.59 149.098 157.582C146.909 157.561 144.717 157.532 142.521 157.421C134.461 157.003 125.84 155.386 120.12 149.169C117.159 145.944 115.625 142.163 115.594 137.786C115.587 136.529 115.471 135.307 114.894 134.168C114.278 132.963 113.351 131.972 112.432 130.999C110.572 129.031 108.567 127.228 106.437 125.571C104.828 124.312 103.03 126.791 104.555 128.095L104.554 128.117ZM83.2322 114.065C79.0978 109.075 75.0845 104.127 71.5584 98.6727L71.8456 100.638L73.4587 95.8508C73.9389 94.4278 72.8984 92.9999 71.3598 93.1474C70.1508 93.2685 68.4422 93.4778 67.3532 92.7628C66.8175 92.4015 66.7533 91.7883 66.6066 91.1998C66.3673 90.2477 66.1093 89.3242 65.6526 88.4438C64.7244 86.648 63.4321 85.0896 62.1836 83.5125C60.8517 81.8366 59.5248 80.1481 58.1929 78.4722L57.4105 81.5423C60.3697 80.2644 63.4304 78.1066 65.1209 75.3015C66.7588 72.5912 66.6883 69.1913 64.1756 67.0459C64.3002 67.9228 64.4372 68.8046 64.5618 69.6815C65.4626 68.6893 67.0341 68.4245 68.1759 67.8051C69.4015 67.1398 70.5456 66.2095 71.1253 64.8991C71.705 63.5888 71.5921 62.1801 70.9355 60.9507C70.2789 59.7214 69.1392 58.8626 68.6075 57.6111L67.5707 60.1798C69.3019 59.5373 70.9902 59.0369 72.5862 58.1006C74.3061 57.091 78.5157 53.6496 80.3638 55.9327C81.5391 57.3859 84.3163 56.4333 83.9081 54.4269C83.656 53.2013 84.2337 52.1294 85.1887 51.3621C85.3364 51.2477 86.0544 50.798 85.7543 50.9668C86.1433 50.7396 86.5397 50.5298 86.9324 50.3113C89.0522 49.1731 91.2379 48.1412 93.4297 47.1481C96.0065 45.9913 98.6614 45.0183 101.205 43.7828C103.01 42.9021 104.777 41.955 106.519 40.9467C107.415 40.4314 108.296 39.9023 109.182 39.3607C109.828 38.962 110.799 38.0849 111.545 38.0672L110.506 37.9304C111.314 38.1551 112.155 39.6473 112.684 40.3106C113.51 41.3545 114.305 42.422 115.064 43.5043C116.666 45.7679 118.135 48.1297 119.528 50.5338C120.202 51.6833 120.863 52.849 121.511 54.0096C122.168 55.1666 122.947 56.3439 123.38 57.6062C124.128 59.8297 123.299 62.2791 122.625 64.4145C121.952 66.5498 124.639 68.2288 126.154 66.397C126.052 66.5228 126.033 66.283 126.323 66.4075C126.486 66.4729 126.608 66.4933 126.76 66.5837C127.331 66.9301 127.648 67.7251 127.914 68.304C128.687 70.0007 129.434 71.6873 130.329 73.3319C132.174 76.7012 134.306 79.8966 136.444 83.0795C137.895 85.2315 141.055 82.722 139.612 80.5663C136.913 76.5475 134.215 72.5076 132.249 68.0742C131.352 66.0375 130.483 63.8449 128.344 62.8219C126.431 61.9194 124.231 62.3582 122.883 63.9746C124.061 64.6312 125.233 65.3004 126.411 65.9571C127.224 63.4214 128.037 60.7621 127.676 58.0642C127.293 55.2414 125.481 52.7049 124.111 50.281C121.18 45.1104 118.098 39.7771 113.966 35.448C113.074 34.515 111.997 33.805 110.638 34.0105C109.124 34.2404 107.729 35.5045 106.45 36.2858C103.841 37.8794 101.144 39.3354 98.3631 40.6201C94.7659 42.2931 91.0584 43.6822 87.5021 45.4514C85.9415 46.2281 84.2674 46.9806 82.8645 48.0312C80.787 49.5853 79.4063 52.3414 79.9649 54.9451L83.5092 53.4393C82.2418 51.8909 80.3924 51.2096 78.4158 51.2746C76.2344 51.3439 74.3443 52.4878 72.5256 53.5808C71.4723 54.2142 70.5676 54.8568 69.4687 55.3341C68.3697 55.8113 67.1901 56.1472 66.0601 56.5756C65.0788 56.9408 64.6129 58.2028 65.0232 59.1443C65.4856 60.2082 66.2008 61.0407 66.9384 61.9257C67.426 62.5141 67.9549 63.0538 67.3672 63.7374C66.7294 64.4733 65.6709 64.7783 64.812 65.1639C63.5417 65.7242 62.4771 66.4038 61.5525 67.4372C60.847 68.2328 61.2177 69.4699 61.9387 70.0728C63.3035 71.2182 62.1159 73.262 61.2226 74.2717C59.7879 75.904 57.8304 77.0353 55.8563 77.8843C54.6662 78.3899 54.268 79.9331 55.0738 80.9544C56.591 82.8719 58.1169 84.7857 59.6378 86.7119C61.0641 88.513 62.2801 90.1349 62.8261 92.3927C63.901 96.7709 67.9565 97.4653 71.883 97.0781C71.1804 96.1782 70.4866 95.2746 69.784 94.3747L68.6094 97.8594C68.2225 99.0155 67.7487 99.9916 68.453 101.139C69.5871 102.981 70.8962 104.75 72.2218 106.459C74.9214 109.92 77.8735 113.294 81.2205 116.139C82.4794 117.205 84.257 115.334 83.2184 114.081L83.2322 114.065ZM52.8637 59.2171L52.7708 58.9983C52.8025 59.2431 52.8342 59.4879 52.8709 59.7203L52.8836 59.6529L52.6068 60.3387C52.7925 60.0222 52.9107 59.7653 52.9081 59.3945C52.9064 59.1473 52.8434 58.9261 52.7555 58.6949L52.551 58.2136L52.0994 57.3207C51.7879 56.7092 51.4539 56.1176 51.1112 55.5297C50.8877 55.1495 50.6676 54.8504 50.2437 54.6793C49.882 54.5333 49.3889 54.5155 49.0288 54.6892C48.6687 54.8628 48.3182 55.1564 48.1784 55.5567C48.0385 55.957 47.9984 56.3976 48.1883 56.7715C48.4997 57.383 48.8074 57.9858 49.1414 58.5774L49.6368 59.4517C50.0019 60.092 50.3927 60.8661 51.2466 60.9062L50.8861 60.8115L50.9484 60.8366L50.3742 60.4091L50.5021 60.613C50.6736 60.8707 51.1024 61.1018 51.4119 61.1252C51.7215 61.1487 52.0188 61.0947 52.289 60.9282C52.8682 60.5892 53.1402 59.8435 52.86 59.2083L52.8637 59.2171ZM45.0681 67.5189C43.893 66.8198 42.6762 66.2416 41.3715 65.8455C40.6855 65.6411 39.9894 65.4616 39.2856 65.337C38.5819 65.2124 37.767 65.0938 37.0498 65.2538C36.4364 65.3905 35.8594 65.8319 35.8048 66.5059C35.7505 67.1075 36.0753 67.8477 36.7027 68.0357C37.0956 68.158 37.4749 68.2241 37.8856 68.2666C38.1901 68.3025 38.5034 68.3347 38.8079 68.3706C39.4082 68.4462 39.9971 68.5679 40.581 68.7021C40.7656 68.7476 40.2167 68.5986 40.5224 68.6857L40.6982 68.7349C40.8492 68.7741 40.9951 68.8257 41.1373 68.8686C42.0217 69.1499 42.8765 69.5168 43.6896 69.9641C43.9737 70.1223 44.4957 70.0865 44.7808 69.9551C45.0659 69.8236 45.3 69.6209 45.4582 69.3367C45.7746 68.7684 45.69 67.8642 45.0782 67.4939L45.0681 67.5189ZM42.8605 77.9095C41.8191 78.352 40.7716 78.7557 39.7116 79.1544L38.1241 79.7462C37.4654 79.9951 36.5846 80.1833 36.1881 80.8063C35.5557 81.7981 36.0502 82.9621 37.2068 83.2042C37.9342 83.36 38.6687 82.8517 39.3139 82.5466L40.8418 81.8148C41.8647 81.3286 42.8824 80.8548 43.9238 80.4124C44.5802 80.1336 44.9561 79.292 44.6436 78.6293C44.3311 77.9666 43.5606 77.6121 42.8605 77.9095ZM51.3481 93.705C49.4357 94.3831 47.3857 95.564 46.4971 97.4602C46.2268 98.0399 46.4689 98.8772 46.9921 99.2334C47.2089 99.3789 47.4458 99.4745 47.7029 99.5203C48.0361 99.575 48.5845 99.4556 48.83 99.2067C49.1206 98.918 49.3912 98.6067 49.6781 98.3092L49.3912 98.6067C49.7232 98.2694 50.014 97.9082 50.3422 97.5622L50.0603 97.8472C50.5839 97.3045 51.1797 96.8344 51.8214 96.4482L51.4987 96.6369C51.7901 96.4718 52.0964 96.3417 52.4152 96.2166C53.0914 95.9603 53.4538 95.0625 53.145 94.4085C52.8051 93.7058 52.0644 93.4213 51.3369 93.6787L51.3481 93.705Z" fill="#472D30"/>
<path d="M70.5471 96.7056C74.8689 94.8902 79.028 92.8133 83.2035 90.6777C87.379 88.5422 91.397 86.4735 95.392 84.1564C96.0462 83.7752 96.6295 83.3001 97.268 83.9276C97.9301 84.5864 98.3739 85.6066 98.8446 86.3984C100.024 88.3972 101.274 90.3663 102.503 92.3341C104.992 96.2972 107.672 100.149 110.312 104.027C111.628 105.958 114.451 103.704 113.157 101.775C108.791 95.2928 104.338 88.9202 99.6379 82.6728C98.7837 81.5377 97.8015 80.612 96.3174 80.4987C94.6386 80.3648 92.7435 81.5212 91.2818 82.2145C87.7657 83.8839 84.3376 85.7846 80.8897 87.5904C76.8866 89.694 72.9358 91.8477 69.0978 94.2428C67.6842 95.1223 69.0981 97.3316 70.5595 96.7107L70.5471 96.7056Z" fill="#472D30"/>
<path d="M98.4199 82.87C103.55 79.6987 108.781 76.6912 113.903 73.5024C116.429 71.9335 118.951 70.3558 121.477 68.7869C122.93 67.8801 128.049 65.7263 125.818 63.2959C125.227 62.6585 124.524 62.5127 123.712 62.7649C123.191 62.9243 122.806 63.3563 122.613 63.8514C122.421 64.3464 122.447 65.0894 122.848 65.4976L122.916 65.5615C123.599 66.2429 124.804 66.4539 125.42 65.5207L125.463 65.4509L123.922 66.1053L123.091 65.632L122.718 64.2924C122.809 63.7271 123.325 63.5802 122.633 63.8739C122.362 63.9892 122.097 64.2156 121.844 64.3746L120.065 65.5126C118.943 66.227 117.821 66.9413 116.707 67.652C114.463 69.0807 112.224 70.497 109.983 71.9344C105.516 74.7932 101.145 77.8071 96.6689 80.6696C95.1427 81.6486 96.8963 83.8065 98.4199 82.87Z" fill="#472D30"/>
<path d="M80.1397 54.9431C85.0271 63.4559 89.7527 72.1716 95.7535 79.9737C96.4983 80.9487 98.1805 79.9964 97.6423 78.851C93.4216 69.9621 87.8315 61.7892 82.4751 53.5584C81.6426 52.2798 79.3749 53.6048 80.1485 54.9394L80.1397 54.9431Z" fill="#472D30"/>
<path d="M82.0939 55.239C81.6329 57.7283 84.4199 58.4038 86.2572 57.7678C88.8345 56.8795 91.3465 55.6676 93.8247 54.5218C98.7672 52.2463 103.909 49.8554 108.356 46.7056C109.452 45.93 108.362 44.0688 107.149 44.6668C103.352 46.5276 99.7221 48.731 95.9221 50.5831C94.0589 51.4986 92.1684 52.3741 90.2593 53.2059C89.2742 53.6347 88.2802 54.0673 87.2839 54.47C86.9076 54.6299 84.647 55.2907 84.6099 55.544C84.8423 53.9267 82.3936 53.6343 82.1077 55.2228L82.0939 55.239Z" fill="#472D30"/>
<path d="M109.878 46.3484C111.164 45.8018 110.316 43.8065 109.03 44.3531C107.743 44.8996 108.591 46.8949 109.878 46.3484ZM114.305 56.3067C115.256 58.0102 116.145 59.7397 117.07 61.4543C117.528 62.3134 118.004 63.1652 118.479 64.0169C118.955 64.8686 119.383 65.9262 120.013 66.7023C121.046 67.9678 123.025 66.7655 122.454 65.2517C122.103 64.3267 121.404 63.4356 120.89 62.59C120.375 61.7443 119.881 60.9213 119.365 60.0969C118.334 58.4481 117.286 56.8067 116.286 55.1343C115.618 54.0236 113.677 55.1686 114.313 56.303L114.305 56.3067ZM71.8251 63.92C71.5275 64.4597 71.5096 64.6119 71.7625 64.3805L71.8913 64.2948C72.1403 64.127 72.4092 63.9818 72.6656 63.8315L74.0228 63.038C74.9946 62.4805 75.9702 61.9317 76.9532 61.4004C78.9192 60.3379 80.9585 59.3992 83.0076 58.5079C84.7191 57.7705 83.5541 55.0525 81.881 55.8563C79.4615 57.0185 77.0829 58.277 74.7353 59.5843C73.5396 60.2473 72.3626 60.954 71.1929 61.6782C70.2184 62.2781 69.0878 62.9238 69.2733 64.2603C69.4991 65.9103 72.0384 65.565 71.8339 63.9163L71.8251 63.92ZM63.2466 78.598C66.3175 83.4918 69.4147 88.3745 72.5256 93.241C73.3294 94.5008 75.5046 93.2254 74.8034 91.891C73.4668 89.3286 71.7402 86.9423 70.1509 84.5389C68.5032 82.0467 66.8067 79.5855 65.1103 77.1244C64.2266 75.8468 62.4478 77.3257 63.2466 78.598ZM77.1481 97.8476C78.8664 100.506 80.5834 103.186 82.6634 105.577C83.6935 106.761 84.8049 107.87 85.8938 108.998C86.9827 110.126 87.9602 111.333 88.999 112.514C90.1174 113.784 91.9012 112.293 91.0241 110.909C89.3631 108.289 86.7701 106.27 84.7461 103.938C82.7221 101.606 80.8815 98.9268 79.1056 96.3031C78.2084 94.9694 76.3058 96.5215 77.1569 97.8439L77.1481 97.8476ZM121.916 70.9869C123.378 73.7957 124.892 76.5821 126.473 79.3301C127.25 80.6734 128.045 82.0094 128.862 83.3254C129.68 84.6414 130.475 86.1733 131.499 87.3913C132.376 88.4341 134.278 87.44 133.635 86.1221C132.993 84.8041 131.993 83.4725 131.183 82.174C130.373 80.8755 129.545 79.5333 128.741 78.2011C127.113 75.5354 125.559 72.8275 124.046 70.0922C123.333 68.804 121.218 69.6613 121.911 70.9994L121.916 70.9869ZM112.386 50.6961C114.031 49.9971 112.946 47.4417 111.3 48.1407C109.655 48.8397 110.741 51.3951 112.386 50.6961Z" fill="#472D30"/>
</g>
<defs>
<clipPath id="clip0_0_205">
<rect width="171.15" height="171.15" fill="white" transform="translate(0 66.9238) rotate(-23.0183)"/>
</clipPath>
</defs>
</svg>
