<svg width="116" height="116" viewBox="0 0 116 116" fill="none" xmlns="http://www.w3.org/2000/svg">
<circle cx="58" cy="58" r="58" fill="#472D30"/>
<circle cx="55.5" cy="57.5" r="35.5" fill="white"/>
<path d="M42 69.96H70V41.96H42V69.96Z" fill="black"/>
<path d="M19.4354 35.5359L19.12 36.4975L15.7871 35.682C14.4777 35.3683 13.4793 35.1063 12.7918 34.8963L17.6533 38.2159L17.3481 39.1462L11.427 39.0214C12.298 39.3071 13.2901 39.6827 14.4031 40.1481L17.5017 41.4308L17.1931 42.3715L10.1871 39.4134L10.6259 38.0756L16.3596 38.2778L11.5963 35.1176L12.0386 33.7693L19.4354 35.5359Z" fill="white"/>
<path d="M22.5679 30.0924C22.7676 30.2157 22.9386 30.2738 23.0808 30.2668C23.2168 30.256 23.3521 30.1973 23.4868 30.0909L23.9644 30.6573C23.7753 30.8938 23.5764 31.0555 23.3677 31.1421C23.1591 31.2287 22.9131 31.2363 22.6298 31.1648C22.9185 31.7999 22.8626 32.4419 22.4619 33.0908C22.1614 33.5775 21.7872 33.8765 21.3392 33.9878C20.8913 34.099 20.4458 34.0179 20.0028 33.7444C19.4787 33.4207 19.1918 32.985 19.1422 32.4373C19.0964 31.8833 19.2873 31.26 19.715 30.5674L20.1831 29.8092L19.818 29.5839C19.4686 29.3681 19.167 29.2982 18.9132 29.3742C18.6595 29.4503 18.4247 29.663 18.2089 30.0124C17.9855 30.3743 17.7993 30.8713 17.6504 31.5033L16.8904 31.3314C17.0433 30.5812 17.2816 29.944 17.6052 29.4199C17.9635 28.8396 18.3748 28.4945 18.839 28.3847C19.297 28.271 19.7881 28.376 20.3123 28.6997L22.5679 30.0924ZM21.9374 32.4955C22.2418 32.0025 22.2248 31.4577 21.8865 30.861L20.754 30.1618L20.3553 30.8076C19.7928 31.7186 19.8485 32.3821 20.5224 32.7982C20.8156 32.9793 21.0815 33.0443 21.3198 32.9932C21.5582 32.9422 21.7641 32.7763 21.9374 32.4955Z" fill="white"/>
<path d="M22.9218 19.98L29.0734 25.2939L28.491 25.9682L27.8186 25.5182C27.9159 25.8542 27.935 26.1856 27.8756 26.5123C27.8108 26.8342 27.6633 27.1283 27.4332 27.3947C26.9826 27.9164 26.4249 28.1469 25.7602 28.0863C25.1002 28.0201 24.4234 27.6874 23.7297 27.0882C23.2802 26.6999 22.9405 26.2854 22.7108 25.8446C22.481 25.4039 22.3816 24.9692 22.4127 24.5406C22.4382 24.1072 22.602 23.7157 22.904 23.366C23.2923 22.9165 23.813 22.6783 24.4662 22.6514L22.1687 20.6668L22.9218 19.98ZM26.9693 26.7033C27.1707 26.4702 27.2905 26.2249 27.3289 25.9673C27.3617 25.705 27.337 25.4026 27.2548 25.0603L25.1071 23.2051C24.7938 23.1864 24.5181 23.2195 24.2799 23.3045C24.041 23.3791 23.8329 23.5191 23.6555 23.7245C23.3631 24.063 23.2769 24.4488 23.3969 24.882C23.5218 25.3096 23.8644 25.7655 24.4249 26.2497C24.991 26.7387 25.4871 27.017 25.9131 27.0846C26.3392 27.1523 26.6913 27.0252 26.9693 26.7033Z" fill="white"/>
<path d="M33.2068 18.8415C33.312 18.9734 33.4137 19.1127 33.512 19.2594L30.6229 21.5644C31.0551 22.0357 31.4739 22.302 31.8793 22.3632C32.2846 22.4244 32.6593 22.3179 33.0032 22.0435C33.2211 21.8697 33.3966 21.6781 33.5297 21.4687C33.6628 21.2593 33.7748 21.0057 33.8657 20.7081L34.587 20.9066C34.4073 21.6691 34.0308 22.279 33.4576 22.7364C32.827 23.2395 32.1693 23.4264 31.4846 23.2972C30.8057 23.1634 30.1781 22.7354 29.6018 22.0131C29.2268 21.5431 28.9697 21.068 28.8307 20.5879C28.6927 20.0976 28.6819 19.6372 28.7982 19.2067C28.9201 18.7717 29.1732 18.4009 29.5572 18.0945C30.1592 17.6143 30.7784 17.4439 31.415 17.5833C32.0516 17.7228 32.6489 18.1422 33.2068 18.8415ZM32.2391 19.2336C31.8824 18.7865 31.5214 18.5163 31.1562 18.4231C30.791 18.3298 30.4306 18.4249 30.0752 18.7085C29.4275 19.2253 29.4545 19.9824 30.1564 20.9797L32.2803 19.2852L32.2391 19.2336Z" fill="white"/>
<path d="M44.8924 10.8517L46.0738 16.6786L44.8205 17.2442L41.8891 13.2087L42.9455 18.0903L41.7223 18.6423L38.1046 13.9149L39.027 13.4987L42.0744 17.711L41.0223 12.5983L42.055 12.1322L45.1425 16.3265L44.0101 11.2499L44.8924 10.8517Z" fill="white"/>
<path d="M49.0616 10.7912L50.2923 16.456L49.3034 16.6709L48.0726 11.006L49.0616 10.7912ZM47.9655 8.18139C48.1733 8.13624 48.3558 8.16415 48.5128 8.26511C48.6698 8.36608 48.7693 8.51331 48.8113 8.70679C48.8534 8.90028 48.8239 9.07553 48.723 9.23254C48.6204 9.38239 48.4653 9.47989 48.2574 9.52504C48.0568 9.56864 47.8787 9.54353 47.7233 9.44973C47.5663 9.34876 47.4667 9.20154 47.4247 9.00805C47.3827 8.81456 47.4121 8.63931 47.5131 8.4823C47.6141 8.32528 47.7649 8.22498 47.9655 8.18139Z" fill="white"/>
<path d="M56.2071 15.7506C55.8559 16.0536 55.4397 16.2308 54.9584 16.2822C54.4699 16.3344 54.0723 16.2367 53.7656 15.9892C53.4654 15.7337 53.2869 15.3397 53.23 14.8074L52.8586 11.3292L51.8523 11.4367L51.7693 10.6601L52.7756 10.5526L52.6366 9.25104L53.63 9.02325L53.7819 10.4452L55.1491 10.2991L55.1227 11.0874L53.8648 11.2217L54.2317 14.6562C54.2636 14.9552 54.338 15.1685 54.4549 15.2961C54.5783 15.4157 54.7639 15.4622 55.0119 15.4358C55.2379 15.4116 55.4849 15.3078 55.753 15.1243L56.2071 15.7506Z" fill="white"/>
<path d="M61.4294 10.3658C61.9574 10.3667 62.3678 10.5251 62.6606 10.8409C62.9607 11.1568 63.1103 11.5897 63.1094 12.1397L63.1024 16.2977L62.0904 16.296L62.0972 12.281C62.0979 11.8703 62.0177 11.5805 61.8566 11.4116C61.7029 11.2426 61.4757 11.1579 61.1751 11.1574C60.8744 11.1569 60.6066 11.2445 60.3716 11.4201C60.1366 11.5957 59.9162 11.8446 59.7103 12.1669L59.7034 16.2919L58.6914 16.2902L58.7051 8.17223L59.7173 8.06395L59.7118 11.2979C60.1675 10.6754 60.7401 10.3647 61.4294 10.3658Z" fill="white"/>
<path d="M70.4739 18.8367C70.1141 18.7347 69.8584 18.5479 69.7067 18.2762C69.5641 17.9995 69.5478 17.6671 69.6578 17.2791L71.5628 10.5588L72.5694 10.7184L70.6374 17.5339C70.5934 17.6891 70.5861 17.809 70.6155 17.8936C70.652 17.9801 70.7337 18.0414 70.8607 18.0774C70.9947 18.1154 71.1207 18.1282 71.2385 18.1159L71.3005 18.8652C71.0317 18.9262 70.7562 18.9167 70.4739 18.8367Z" fill="white"/>
<path d="M78.2551 15.6528C79.0099 15.9576 79.4931 16.4453 79.7048 17.116C79.9232 17.7894 79.858 18.5579 79.5094 19.4215C79.2842 19.9791 78.99 20.4336 78.6266 20.7852C78.266 21.1299 77.8574 21.3485 77.4009 21.441C76.9471 21.5266 76.4721 21.4693 75.9757 21.2688C75.2209 20.9641 74.7343 20.475 74.5159 19.8016C74.2974 19.1281 74.3626 18.3596 74.7113 17.496C74.9364 16.9384 75.2293 16.4873 75.5899 16.1426C75.9533 15.791 76.3619 15.5724 76.8156 15.4868C77.2721 15.3943 77.7519 15.4496 78.2551 15.6528ZM77.9504 16.4076C77.0188 16.0314 76.2757 16.5302 75.7211 17.9038C75.1692 19.2705 75.3557 20.1406 76.2804 20.514C77.2052 20.8874 77.9449 20.3874 78.4996 19.0138C79.0514 17.647 78.8684 16.7783 77.9504 16.4076Z" fill="white"/>
<path d="M87.1606 21.6095L82.3797 25.4337L81.3509 24.7762L82.7858 18.8134L83.7127 19.4058L82.3557 24.3479L86.2616 21.0349L87.1606 21.6095Z" fill="white"/>
<path d="M90.5824 28.9528C90.4702 29.0787 90.35 29.2025 90.222 29.3241L87.4629 26.8649C87.0713 27.3704 86.8794 27.8281 86.8874 28.238C86.8953 28.6479 87.0635 28.9992 87.392 29.2919C87.6 29.4774 87.8185 29.618 88.0473 29.714C88.2762 29.8099 88.545 29.8776 88.8537 29.917L88.7796 30.6614C87.9977 30.6128 87.333 30.3445 86.7856 29.8566C86.1834 29.3198 85.8883 28.7031 85.9002 28.0064C85.9176 27.3146 86.2337 26.6239 86.8485 25.9341C87.2486 25.4852 87.6735 25.1517 88.1233 24.9337C88.5834 24.7151 89.0354 24.6268 89.4793 24.6688C89.9287 24.7157 90.3367 24.9026 90.7035 25.2296C91.2783 25.7419 91.5507 26.3236 91.5205 26.9746C91.4904 27.6255 91.1777 28.285 90.5824 28.9528ZM90.0328 28.0651C90.4134 27.6381 90.6189 27.2367 90.6492 26.861C90.6796 26.4853 90.525 26.1462 90.1856 25.8436C89.567 25.2923 88.8254 25.4465 87.9606 26.3065L89.9889 28.1143L90.0328 28.0651Z" fill="white"/>
<path d="M89.7384 33.1807L96.6847 41.7099L105.214 34.7636L98.2676 26.2343L89.7384 33.1807Z" fill="white"/>
<path d="M94.5372 83.0156L94.8527 82.054L98.1855 82.8695C99.495 83.1833 100.493 83.4452 101.181 83.6553L96.3194 80.3356L96.6245 79.4053L102.546 79.5301C101.675 79.2444 100.683 78.8688 99.5696 78.4034L96.471 77.1207L96.7796 76.18L103.786 79.1381L103.347 80.476L97.6131 80.2737L102.376 83.4339L101.934 84.7822L94.5372 83.0156Z" fill="white"/>
<path d="M91.4047 88.4591C91.205 88.3358 91.0341 88.2777 90.8919 88.2847C90.7559 88.2955 90.6206 88.3542 90.4859 88.4606L90.0082 87.8942C90.1974 87.6577 90.3963 87.4961 90.6049 87.4094C90.8136 87.3228 91.0595 87.3152 91.3429 87.3867C91.0541 86.7517 91.1101 86.1097 91.5108 85.4607C91.8113 84.974 92.1855 84.675 92.6334 84.5638C93.0813 84.4525 93.5268 84.5336 93.9698 84.8072C94.494 85.1308 94.7809 85.5665 94.8305 86.1142C94.8763 86.6682 94.6853 87.2915 94.2577 87.9841L93.7896 88.7423L94.1546 88.9677C94.504 89.1834 94.8057 89.2533 95.0594 89.1773C95.3132 89.1013 95.548 88.8885 95.7637 88.5391C95.9872 88.1772 96.1734 87.6802 96.3223 87.0482L97.0823 87.2201C96.9293 87.9703 96.6911 88.6075 96.3674 89.1316C96.0092 89.7119 95.5979 90.057 95.1336 90.1668C94.6756 90.2805 94.1845 90.1755 93.6604 89.8519L91.4047 88.4591ZM92.0352 86.056C91.7309 86.549 91.7478 87.0938 92.0861 87.6905L93.2187 88.3898L93.6174 87.7439C94.1799 86.8329 94.1242 86.1694 93.4503 85.7533C93.157 85.5722 92.8912 85.5072 92.6528 85.5583C92.4145 85.6093 92.2086 85.7752 92.0352 86.056Z" fill="white"/>
<path d="M91.0509 98.5715L84.8992 93.2576L85.4817 92.5833L86.1541 93.0333C86.0567 92.6973 86.0377 92.3659 86.097 92.0392C86.1619 91.7173 86.3094 91.4232 86.5395 91.1568C86.9901 90.6352 87.5478 90.4046 88.2125 90.4653C88.8724 90.5314 89.5493 90.8641 90.243 91.4633C90.6925 91.8516 91.0321 92.2662 91.2619 92.7069C91.4917 93.1476 91.591 93.5823 91.5599 94.0109C91.5344 94.4443 91.3706 94.8359 91.0686 95.1855C90.6803 95.635 90.1596 95.8732 89.5065 95.9001L91.804 97.8848L91.0509 98.5715ZM87.0033 91.8482C86.802 92.0813 86.6821 92.3266 86.6438 92.5842C86.6109 92.8466 86.6356 93.1489 86.7178 93.4913L88.8655 95.3464C89.1788 95.3652 89.4546 95.332 89.6927 95.247C89.9316 95.1724 90.1398 95.0324 90.3172 94.827C90.6096 94.4885 90.6958 94.1027 90.5757 93.6695C90.4509 93.2419 90.1082 92.786 89.5477 92.3018C88.9817 91.8129 88.4856 91.5345 88.0595 91.4669C87.6334 91.3992 87.2814 91.5263 87.0033 91.8482Z" fill="white"/>
<path d="M80.7658 99.71C80.6607 99.5781 80.5589 99.4388 80.4606 99.2921L83.3498 96.9871C82.9175 96.5158 82.4987 96.2496 82.0934 96.1883C81.688 96.1271 81.3134 96.2337 80.9694 96.5081C80.7516 96.6819 80.5761 96.8734 80.443 97.0829C80.3098 97.2923 80.1978 97.5458 80.107 97.8434L79.3857 97.6449C79.5654 96.8824 79.9418 96.2725 80.5151 95.8151C81.1457 95.3121 81.8033 95.1251 82.488 95.2543C83.167 95.3881 83.7946 95.8161 84.3708 96.5384C84.7459 97.0085 85.0029 97.4835 85.142 97.9636C85.2799 98.4539 85.2907 98.9144 85.1745 99.3448C85.0525 99.7799 84.7995 100.151 84.4154 100.457C83.8135 100.937 83.1942 101.108 82.5577 100.968C81.9211 100.829 81.3238 100.409 80.7658 99.71ZM81.7336 99.3179C82.0903 99.765 82.4513 100.035 82.8165 100.128C83.1817 100.222 83.542 100.127 83.8974 99.843C84.5452 99.3262 84.5182 98.5692 83.8163 97.5718L81.6924 99.2663L81.7336 99.3179Z" fill="white"/>
<path d="M69.0802 107.7L67.8989 101.873L69.1522 101.307L72.0836 105.343L71.0271 100.461L72.2503 99.9092L75.8681 104.637L74.9456 105.053L71.8982 100.841L72.9504 105.953L71.9177 106.419L68.8302 102.225L69.9626 107.302L69.0802 107.7Z" fill="white"/>
<path d="M64.9111 107.76L63.6804 102.095L64.6693 101.881L65.9 107.545L64.9111 107.76ZM66.0071 110.37C65.7993 110.415 65.6169 110.387 65.4599 110.286C65.3029 110.185 65.2033 110.038 65.1613 109.845C65.1193 109.651 65.1487 109.476 65.2497 109.319C65.3522 109.169 65.5074 109.072 65.7152 109.026C65.9159 108.983 66.0939 109.008 66.2494 109.102C66.4064 109.203 66.5059 109.35 66.548 109.543C66.59 109.737 66.5605 109.912 66.4596 110.069C66.3586 110.226 66.2078 110.327 66.0071 110.37Z" fill="white"/>
<path d="M57.7656 102.801C58.1167 102.498 58.5329 102.321 59.0142 102.269C59.5028 102.217 59.9004 102.315 60.2071 102.562C60.5072 102.818 60.6858 103.212 60.7426 103.744L61.1141 107.222L62.1204 107.115L62.2033 107.891L61.197 107.999L61.3361 109.3L60.3426 109.528L60.1908 108.106L58.8235 108.252L58.85 107.464L60.1078 107.33L59.741 103.895C59.7091 103.596 59.6347 103.383 59.5178 103.255C59.3944 103.136 59.2087 103.089 58.9608 103.116C58.7348 103.14 58.4877 103.244 58.2197 103.427L57.7656 102.801Z" fill="white"/>
<path d="M52.5433 108.186C52.0153 108.185 51.6049 108.026 51.3121 107.711C51.0119 107.395 50.8623 106.962 50.8633 106.412L50.8703 102.254L51.8823 102.256L51.8755 106.271C51.8748 106.681 51.955 106.971 52.116 107.14C52.2697 107.309 52.4969 107.394 52.7976 107.394C53.0983 107.395 53.3661 107.307 53.601 107.131C53.836 106.956 54.0564 106.707 54.2623 106.385L54.2693 102.26L55.2813 102.261L55.2676 110.379L54.2554 110.488L54.2608 107.254C53.8051 107.876 53.2326 108.187 52.5433 108.186Z" fill="white"/>
<path d="M43.4987 99.7148C43.8585 99.8168 44.1143 100.004 44.2659 100.275C44.4085 100.552 44.4248 100.884 44.3148 101.272L42.4099 107.993L41.4032 107.833L43.3352 101.018C43.3792 100.862 43.3865 100.743 43.3571 100.658C43.3207 100.571 43.239 100.51 43.112 100.474C42.9779 100.436 42.852 100.423 42.7341 100.436L42.6722 99.6863C42.941 99.6253 43.2165 99.6348 43.4987 99.7148Z" fill="white"/>
<path d="M35.7175 102.899C34.9627 102.594 34.4795 102.106 34.2679 101.436C34.0495 100.762 34.1146 99.9936 34.4633 99.13C34.6884 98.5724 34.9827 98.1179 35.3461 97.7663C35.7067 97.4216 36.1153 97.203 36.5718 97.1105C37.0255 97.0249 37.5006 97.0822 37.997 97.2827C38.7518 97.5874 39.2384 98.0765 39.4568 98.75C39.6752 99.4234 39.6101 100.192 39.2614 101.055C39.0362 101.613 38.7434 102.064 38.3827 102.409C38.0194 102.76 37.6108 102.979 37.1571 103.065C36.7006 103.157 36.2207 103.102 35.7175 102.899ZM36.0223 102.144C36.9539 102.52 37.697 102.021 38.2516 100.648C38.8035 99.281 38.617 98.4109 37.6922 98.0375C36.7674 97.6641 36.0277 98.1642 35.4731 99.5377C34.9212 100.905 35.1043 101.773 36.0223 102.144Z" fill="white"/>
<path d="M26.812 96.9421L31.593 93.1178L32.6218 93.7754L31.1868 99.7381L30.26 99.1457L31.617 94.2037L27.7111 97.5167L26.812 96.9421Z" fill="white"/>
<path d="M23.3902 89.5987C23.5025 89.4728 23.6226 89.349 23.7507 89.2274L26.5097 91.6866C26.9014 91.1811 27.0933 90.7234 27.0853 90.3135C27.0773 89.9037 26.9091 89.5523 26.5807 89.2596C26.3726 89.0741 26.1542 88.9335 25.9253 88.8375C25.6965 88.7416 25.4277 88.674 25.119 88.6346L25.1931 87.8902C25.975 87.9387 26.6396 88.207 27.1871 88.6949C27.7893 89.2317 28.0844 89.8484 28.0725 90.5451C28.0551 91.2369 27.739 91.9277 27.1242 92.6174C26.724 93.0663 26.2991 93.3998 25.8494 93.6178C25.3893 93.8364 24.9373 93.9247 24.4934 93.8827C24.044 93.8358 23.6359 93.6489 23.2691 93.3219C22.6943 92.8096 22.422 92.2279 22.4521 91.577C22.4822 90.926 22.7949 90.2666 23.3902 89.5987ZM23.9399 90.4864C23.5593 90.9134 23.3538 91.3148 23.3234 91.6905C23.2931 92.0662 23.4476 92.4053 23.787 92.7079C24.4056 93.2593 25.1473 93.105 26.012 92.245L23.9838 90.4372L23.9399 90.4864Z" fill="white"/>
<path d="M24.2343 85.3709L17.288 76.8416L8.7587 83.7879L15.705 92.3172L24.2343 85.3709Z" fill="white"/>
<circle cx="103.5" cy="57.5" r="2.5" fill="white"/>
<circle cx="11.5" cy="57.5" r="2.5" fill="white"/>
</svg>
