<svg width="89" height="89" viewBox="0 0 89 89" fill="none" xmlns="http://www.w3.org/2000/svg">
<g opacity="0.7">
<path d="M6.41788 66.0182C6.23493 60.6931 7.16943 55.3283 8.09404 50.1021C9.14227 44.1934 10.4624 38.2552 12.4303 32.574C13.2808 30.1216 14.2647 28.0498 15.5552 25.7111C17.1572 22.8087 18.957 19.9854 21.2067 17.5379C23.313 15.2437 25.8397 13.2659 28.7865 12.193C31.8274 11.0854 35.2588 10.8283 38.4134 11.6046C39.9412 11.9804 41.4147 12.6429 42.6013 13.6961C43.6891 14.6603 44.3615 15.8519 44.767 17.2413C45.6619 20.2722 45.3702 23.6048 45.212 26.7198C45.1724 27.4367 45.1329 28.1537 45.1032 28.8756C45.0587 29.9089 46.2701 30.1611 46.9425 29.637C49.9982 27.2637 53.573 25.5628 57.3259 24.6481C61.0392 23.7383 65.1084 23.5108 68.8464 24.4305C70.6116 24.8656 72.3471 25.5875 73.7266 26.7939C74.9578 27.8669 75.912 29.2217 76.5647 30.7198C77.9294 33.8744 77.8799 37.4344 76.7625 40.6433C74.1172 48.2232 66.6857 52.6039 59.7388 55.6596C51.8079 59.1504 43.5457 61.9687 35.1847 64.2382C26.7346 66.5324 18.1214 68.2333 9.42904 69.2914C8.36104 69.42 7.2881 69.5436 6.21515 69.6524C5.63171 69.7117 5.12738 70.1073 5.12738 70.7402C5.12738 71.2791 5.62676 71.8873 6.21515 71.8279C15.4267 70.8737 24.564 69.2519 33.5332 66.9379C42.4437 64.6432 51.1689 61.6814 59.6349 58.0774C67.19 54.8586 75.022 50.4086 78.3991 42.4926C79.9022 38.9672 80.2829 35.0314 79.1457 31.3379C78.0184 27.6889 75.5116 24.653 71.9763 23.1351C68.085 21.4638 63.6103 21.3798 59.4718 21.983C55.4124 22.5714 51.4321 24.0448 47.9759 26.255C47.0859 26.8236 46.2404 27.4565 45.4197 28.1191C46.0328 28.3712 46.6459 28.6283 47.259 28.8805C47.343 25.5479 47.5754 22.2055 47.0464 18.8927C46.7992 17.3303 46.4234 15.7728 45.652 14.3784C44.8461 12.9248 43.6001 11.7431 42.2008 10.8679C36.0648 7.05077 27.8174 8.96427 22.4527 13.1967C19.7184 15.3525 17.5132 18.1263 15.6393 21.0386C13.9433 23.6641 12.4007 26.4528 11.209 29.3403C8.9346 34.8435 7.61443 40.7867 6.52171 46.6212C5.42404 52.4655 4.54888 58.4977 4.60327 64.4558C4.60327 64.9749 4.62304 65.4991 4.65271 66.0182C4.71699 67.1456 6.46238 67.1653 6.42282 66.0182H6.41788Z" fill="#472D30"/>
<path d="M42.1118 11.9359C44.8708 13.7851 45.8053 15.6492 47.8177 18.2895C49.4395 20.4255 51.0662 22.5615 52.688 24.6975C50.9475 24.2179 49.746 27.2933 47.9957 26.8483C47.165 26.6357 46.7398 25.6518 46.7992 24.7964C46.8585 23.941 47.2689 23.1499 47.5557 22.339C47.8424 21.5281 47.9858 20.5837 47.5557 19.8421" fill="#472D30"/>
<path d="M41.6273 12.4204C42.5717 13.2066 43.4864 14.0027 44.2824 14.9471C45.0093 15.8123 45.6224 16.7617 46.275 17.6813C48.0847 20.2178 50.0229 22.6653 51.887 25.1623C52.238 24.7074 52.5891 24.2525 52.9352 23.7976C51.9068 23.5504 51.0316 23.9707 50.2405 24.5986C49.7263 25.004 48.9895 25.9336 48.3468 25.9534C47.259 25.9831 47.882 24.0053 48.0798 23.4861C48.594 22.1264 49.039 20.7716 48.3319 19.3921C47.8078 18.3686 46.2701 19.2734 46.7893 20.292C47.1156 20.9249 46.8535 21.6814 46.6212 22.3044C46.3443 23.0609 46.013 23.7778 45.924 24.5838C45.7806 25.8496 46.3838 27.2983 47.6743 27.7186C48.767 28.0746 49.7312 27.5158 50.552 26.8384C51.0365 26.4379 51.8474 25.4639 52.4358 25.5974C53.4049 25.8149 53.8944 24.7568 53.3407 24.0448C51.4024 21.538 49.4593 19.0361 47.5705 16.4897C46.1168 14.5268 44.6434 12.5441 42.453 11.3475C41.7954 10.9915 40.9944 11.9062 41.6174 12.4254L41.6273 12.4204ZM6.1756 71.2494C8.96426 74.0381 11.7628 76.2681 13.6318 78.2013C14.1065 78.6908 14.7542 78.9826 15.4365 78.9826C33.8299 79.0716 51.8277 73.2371 68.5844 65.6078C72.1147 64.0009 75.6549 62.2802 78.5722 59.7239C81.4894 57.1677 83.7589 53.6522 84.0259 49.7807C84.1594 47.8325 83.7935 45.8894 83.4029 43.9759C82.3596 38.8337 80.3225 33.2563 76.6636 28.475C79.0814 32.7026 79.2594 39.5555 77.2816 44.0055C75.3039 48.4555 71.6747 52.0205 67.5708 54.6361C63.6548 57.133 59.2987 58.8438 54.913 60.3865C45.5374 63.6903 35.9827 66.4619 26.2945 68.6882C20.7617 69.9589 15.1547 71.0566 9.48343 71.289" fill="#472D30"/>
<path d="M5.57733 71.8428C6.96672 73.2816 8.44017 74.6265 9.9235 75.9664C10.5663 76.5449 11.214 77.1234 11.837 77.7267C12.3809 78.2557 12.8803 78.8738 13.5033 79.3138C14.2598 79.8478 15.1053 79.9368 16.0052 79.9418C16.9941 79.9418 17.978 79.9319 18.9669 79.8973C20.9348 79.8281 22.9027 79.6946 24.8607 79.4968C32.6976 78.7156 40.4159 76.9998 47.9314 74.6562C55.447 72.3125 62.8142 69.3458 69.9738 66.0331C76.2878 63.1109 83.2892 58.8982 84.7725 51.4964C85.1582 49.5582 85.0197 47.6199 84.6835 45.6867C84.372 43.8918 83.9764 42.1019 83.4771 40.3467C82.4832 36.8509 81.0493 33.4442 79.1062 30.3638C78.5956 29.5528 78.0478 28.7658 77.4646 28.0053C76.7625 27.0807 75.2544 27.8669 75.8577 28.9448C77.0246 31.0165 77.5487 33.4195 77.6723 35.778C77.8008 38.2107 77.5388 40.6928 76.6883 42.9821C74.8787 47.8523 70.666 51.6546 66.3149 54.2702C61.0342 57.4495 55.0564 59.3679 49.2269 61.2765C43.1848 63.2543 37.0685 65.0195 30.8929 66.5522C23.8668 68.2976 16.732 69.9589 9.47356 70.2556C8.15833 70.31 8.15339 72.3619 9.47356 72.3026C16.2029 72.0059 22.8137 70.5721 29.3403 68.9898C35.8324 67.4175 42.2651 65.6078 48.6187 63.5509C54.6312 61.6028 60.8068 59.6448 66.3248 56.5101C71.1802 53.756 75.6648 49.8202 78.0085 44.6533C79.2001 42.0327 79.6352 39.1106 79.5462 36.2428C79.4572 33.3997 78.8639 30.4973 77.4597 27.9954L75.8527 28.9349C78.0233 31.7977 79.7044 35.0017 80.901 38.3837C81.4647 39.9758 81.9245 41.6075 82.3003 43.254C82.7107 45.0785 83.0914 46.9574 83.0864 48.8313C83.0765 56.0947 76.54 60.6782 70.6759 63.5361C63.9416 66.8242 56.9155 69.6425 49.8054 71.9961C42.6755 74.3546 35.3478 76.2038 27.9015 77.1927C25.8743 77.4597 23.8372 77.6624 21.8001 77.8008C19.7036 77.9393 17.533 78.1272 15.4316 78.0134C14.5812 77.9689 14.1164 77.3311 13.5379 76.7872C12.8753 76.1642 12.193 75.5561 11.5156 74.9528C9.91856 73.5338 8.31656 72.1147 6.76895 70.6363C5.98278 69.8848 4.82578 71.0467 5.57733 71.8279V71.8428ZM5.54272 67.1109C8.03472 64.1789 10.6553 61.4248 13.4884 58.8191C16.3711 56.1738 19.3476 53.6274 22.2994 51.0563C28.3564 45.7856 34.4381 40.5346 40.6483 35.4418C42.3937 34.0128 44.1489 32.5987 45.9141 31.2044C47.6892 29.8051 49.6818 28.5196 51.2492 26.8879C51.9562 26.1512 51.0662 25.009 50.1663 25.4886C48.4012 26.4281 46.8387 27.8323 45.2664 29.0634C43.6496 30.3342 42.0426 31.6197 40.4505 32.9152C37.3227 35.4636 34.2272 38.0514 31.1648 40.6779C25.0931 45.8894 19.0163 51.1305 13.1275 56.5546C9.94328 59.4916 6.75906 62.5719 4.20278 66.0924C3.64406 66.8637 4.90983 67.8477 5.53283 67.1159L5.54272 67.1109Z" fill="#472D30"/>
<path d="M28.658 42.7744C26.6061 40.5593 24.4898 38.3244 22.9669 35.694C21.6072 33.3453 20.47 30.3292 21.0782 27.5752C21.2957 26.5813 21.7407 25.5133 22.5714 24.8755C23.4515 24.1981 24.5591 24.3217 25.4392 24.9398C26.5714 25.7309 27.0906 27.1055 27.4565 28.3811C27.8867 29.8743 28.1982 31.4121 28.3762 32.9547C28.7915 36.5098 28.5888 40.1044 27.768 43.5902C28.3762 43.6743 28.9893 43.7534 29.5974 43.8375C29.8941 40.0747 30.3539 36.3318 31.0017 32.6136C31.3181 30.794 31.6741 28.9794 32.0697 27.1747C32.4158 25.6122 32.6828 23.8273 33.6766 22.517C34.3491 21.632 35.7187 20.8507 36.6334 21.8594C37.4393 22.7494 37.4937 24.1388 37.4542 25.2711C37.3404 28.4899 36.0796 31.5357 34.4776 34.2848C32.5691 37.5531 30.1957 40.5642 27.8619 43.5358C27.234 44.3319 28.0004 45.5433 28.9942 45.0043C30.6506 44.0995 32.3812 43.1304 34.2749 42.8436C36.1538 42.5568 37.9437 43.2639 39.7286 43.7287C41.3257 44.144 43.071 44.3566 44.6681 43.8078C45.3999 43.5556 46.0921 43.1699 46.6311 42.6063C47.1601 42.0476 47.4222 41.3257 47.8919 40.7323C48.5099 39.9511 49.8548 40.0302 50.7498 39.9214C51.9414 39.7731 53.128 39.6248 54.3147 39.4517C55.2344 39.3182 55.0267 37.7311 54.0922 37.8201C53.0143 37.9239 51.9414 38.0426 50.8684 38.1662C49.8993 38.2799 48.8116 38.2799 47.8919 38.6161C46.2701 39.2144 46.0674 41.1378 44.5692 41.8349C43.1601 42.4926 41.474 42.1366 40.045 41.741C38.1118 41.207 36.2279 40.5889 34.1958 40.8609C31.9559 41.1576 29.9732 42.2651 28.0498 43.3875L29.3255 44.6632C33.6222 38.8782 39.0216 32.8657 39.2984 25.2661C39.3528 23.8026 39.1649 22.1857 38.2749 20.9694C37.291 19.6196 35.6297 19.1844 34.1018 19.8618C32.4504 20.5936 31.5208 22.2401 30.9819 23.8866C30.3638 25.7803 30.0227 27.7927 29.6419 29.7458C28.7371 34.3985 28.1042 39.1056 27.7284 43.8325C27.6444 44.8807 29.3205 45.0933 29.5579 44.0797C30.4083 40.4802 30.6654 36.7422 30.2501 33.0635C30.0523 31.3132 29.7408 29.5727 29.2513 27.8768C28.7964 26.2896 28.1141 24.6876 26.7989 23.6246C25.6122 22.6653 24.0152 22.2055 22.5467 22.7593C21.3402 23.2142 20.4156 24.2129 19.8668 25.365C18.4527 28.3168 19.1103 31.7977 20.376 34.6803C21.9632 38.2898 24.7667 41.1526 27.5208 43.8968C28.2526 44.6286 29.3502 43.521 28.6531 42.7645L28.658 42.7744Z" fill="#472D30"/>
<path d="M9.99767 31.2637C11.0607 32.6185 12.3413 33.7953 13.5725 34.9918C14.8037 36.1884 16.0002 37.3207 17.2462 38.448C19.7827 40.7422 22.4231 42.9029 25.1573 44.9648C27.8669 47.0118 30.5221 49.0983 33.0684 51.348C35.6544 53.6373 38.1859 55.9958 40.7373 58.3296C42.186 59.6547 43.6347 60.9749 45.0835 62.295C45.8103 62.9576 46.5371 63.6103 47.2788 64.258C48.0699 64.9502 48.8363 65.7215 49.7362 66.2704C50.4383 66.6956 51.4618 65.8007 50.9278 65.0788C49.8796 63.6696 48.4111 62.4879 47.1156 61.3062C45.7905 60.0898 44.4654 58.8784 43.1353 57.667C40.5692 55.3333 38.0178 52.9797 35.4269 50.6707C32.8509 48.3715 30.1908 46.1959 27.4268 44.1242C24.6975 42.0772 22.0226 39.9808 19.4465 37.7459C18.0275 36.5147 16.6282 35.2588 15.2388 33.998C13.8494 32.7372 12.4204 31.3132 10.8481 30.171C10.1559 29.6716 9.56751 30.6951 10.0125 31.2588L9.99767 31.2637Z" fill="#472D30"/>
</g>
</svg>
