<svg width="373" height="373" viewBox="0 0 373 373" fill="none" xmlns="http://www.w3.org/2000/svg">
<g opacity="0.4" clip-path="url(#clip0_73_42662)">
<path d="M159.16 150.417C149.283 142.055 141.53 131.397 136.623 119.41C131.783 107.582 129.222 93.4972 132.149 80.8655C134.711 69.7834 142.53 59.269 154.454 57.8776C163.598 56.7979 173.011 61.3118 179.259 67.8383C180.241 68.8522 181.159 69.929 182.021 71.0567C182.472 71.644 182.914 72.2433 183.338 72.8664C183.461 73.0487 184.339 74.4812 184.058 73.9631C185.254 76.1621 185.983 78.6238 186.669 81.0178C188.3 86.6559 189.214 92.7964 191.759 98.1136C193.617 101.99 199.735 99.3533 197.895 95.4528C196.198 91.8586 196.393 88.3119 198.748 85.1C201.269 81.6613 205.138 79.4131 209.042 77.8692C217.716 74.4256 227.557 75.0498 235.45 79.8084C241.042 83.1736 244.991 87.3532 247.06 93.2945C247.17 93.5954 247.259 93.8994 247.36 94.2122C247.367 94.2536 247.385 94.3037 247.512 94.782C247.688 95.5174 247.841 96.2354 247.956 96.9803C248.073 97.672 248.158 98.358 248.213 99.0592C248.249 99.4349 248.265 99.8138 248.302 100.189C248.325 100.684 248.326 100.758 248.332 100.799C248.34 102.291 248.252 103.788 248.067 105.267C247.977 105.991 247.867 106.718 247.735 107.448C247.669 107.839 247.593 108.243 247.514 108.626C247.472 108.833 247.243 109.822 247.337 109.468C244.251 122.167 236.118 133.736 226.884 142.35C224.53 144.535 222.041 146.602 219.423 148.446C216.423 150.56 214.171 151.828 210.508 153.42C200.346 157.866 189.574 159.037 178.596 158.662C168.331 158.315 157.345 157.475 147.764 161.906C145.074 163.146 142.408 165.029 141.267 167.864C140.295 170.291 140.514 173.021 141.393 175.428C143.285 180.56 149.003 182.677 153.963 180.769C156.413 179.831 158.126 178.094 159.298 175.796C157.317 175.592 155.346 175.377 153.366 175.173C153.894 179.636 156.505 183.661 160.546 185.687C164.309 187.565 169.021 187.073 172.417 184.643C176.043 182.051 177.274 177.317 176.695 173.074C176.061 168.406 173.225 164.436 170.496 160.746C167.929 157.286 162.595 161.508 165.255 164.89C167.111 167.242 169.208 169.715 170.072 172.643C170.687 174.709 170.746 177.433 169.159 179.097C167.701 180.635 165.143 180.944 163.271 180.067C160.976 178.99 159.757 176.646 159.458 174.225C159.034 170.921 154.813 171.021 153.526 173.602C151.788 177.1 146.214 175.438 147.003 171.482C147.492 169.013 150.211 168.033 152.305 167.255C154.558 166.41 156.895 165.902 159.278 165.556C169.653 164.075 180.192 166.001 190.615 165.179C201.113 164.357 211.57 161.211 220.571 155.694C226.233 152.227 231.213 147.764 235.732 142.926C244.996 132.994 252.794 120.28 254.685 106.632C255.547 100.398 254.925 93.81 252.209 88.0741C249.06 81.4517 243.561 76.5575 237.196 73.1208C228.081 68.2008 217.384 67.7932 207.682 71.2362C199.195 74.2483 189.866 81.14 190.063 91.0874C190.113 93.5476 190.74 95.8979 191.8 98.1072L197.937 95.4464C195.628 90.633 194.753 85.0902 193.3 79.9862C192.539 77.3175 191.787 74.563 190.584 72.0472C189.381 69.5314 187.767 67.3755 186.013 65.3366C178.883 57.0074 168.187 50.9647 157.03 51.0832C143.588 51.2148 132.878 60.2891 127.885 72.434C122.179 86.3516 123.948 102.444 128.657 116.379C133.776 131.531 143.538 144.783 156.004 154.748C158.722 156.924 161.791 152.639 159.172 150.426L159.16 150.417ZM238.987 210.352C231.421 197.335 229.854 180.141 237.903 167.409C240.305 163.608 243.634 160.193 247.876 158.713C255.074 156.207 263.593 160.212 267.249 166.894C270.896 173.588 270.056 182.17 266.184 188.73C275.487 184.829 287.358 187.016 293.751 194.823C300.143 202.63 299.429 215.673 291.49 221.895C286.707 225.639 280.292 226.627 274.213 226.43C265.667 226.163 257.302 223.892 249.794 219.799C241.557 215.284 233.28 208.371 224.051 210.142C222.086 210.519 220.018 211.462 219.253 213.306C218.332 215.514 219.771 218.184 221.891 219.298C224.012 220.412 226.578 220.292 228.927 219.793C226.538 221.749 227.871 226.417 230.931 226.824C236.144 223.946 239.427 217.89 238.969 211.955" fill="#472D30"/>
<path d="M241.401 209.314C235.414 198.775 233.377 185.202 238.091 173.789C240.359 168.292 244.62 162.054 250.989 161.179C256.208 160.47 261.631 163.565 264.302 167.984C267.731 173.673 267.049 181.415 263.855 187.023C262.487 189.416 264.487 192.571 267.347 191.4C275.716 187.972 286.613 189.81 292.118 197.426C297.115 204.357 295.738 215.574 288.417 220.303C284.294 222.971 279.02 223.529 274.219 223.368C268.51 223.167 262.904 222.049 257.561 220.023C247.986 216.381 240.004 208.289 229.609 206.892C224.094 206.153 215.449 208.003 215.906 215.167C216.363 222.331 223.768 223.85 229.376 222.711L227.113 217.509C224.795 219.719 224.111 222.981 225.538 225.918C226.234 227.347 227.379 228.59 228.834 229.234C230.721 230.066 232.054 229.649 233.71 228.568C239.355 224.85 242.252 218.144 241.898 211.514C241.694 207.711 235.829 208.625 236.042 212.416C236.297 217.027 233.761 221.813 229.756 224.146L231.225 223.919C230.732 223.815 230.374 222.451 230.747 222.118C232.746 220.243 231.572 216.335 228.484 216.917C226.652 217.262 223.977 217.706 222.611 216.063C221.009 214.117 223.79 213.402 225.334 213.175C229.884 212.528 234.353 214.519 238.262 216.65C242.921 219.184 247.286 222.22 252.128 224.429C257.392 226.838 263.072 228.432 268.806 229.148C278.971 230.432 291.614 229.237 297.625 219.711C302.783 211.523 302.101 200.284 295.844 192.869C288.443 184.084 275.431 181.925 265.039 186.11L268.53 190.487C272.422 183.776 273.979 175.592 271.245 168.154C268.697 161.238 262.254 156.129 254.982 155.056C237.922 152.535 229.359 173.28 229.619 187.147C229.787 195.733 232.302 204.02 236.6 211.43C237.309 212.666 238.638 213.383 240.062 212.793C241.255 212.291 242.134 210.567 241.424 209.331L241.401 209.314ZM93.427 193.28C83.831 190.669 75.2158 184.591 69.5302 176.421C66.6452 172.269 64.4637 167.457 64.3555 162.421C64.2354 157.376 66.4935 152.093 70.815 149.478C75.3602 146.734 81.3727 147.397 86.0117 150.009C90.63 152.623 94.0849 156.9 97.0026 161.334C98.8919 153.724 105.248 146.231 113.073 146.901C117.302 147.266 121.087 150.041 123.344 153.623C128.064 161.158 126.128 171.561 120.458 178.419C114.788 185.277 106.164 189.052 97.4795 190.982C95.2168 191.489 92.876 191.903 90.8689 193.038C88.853 194.185 87.1667 196.235 87.2068 198.559C87.2557 200.871 89.6191 203.081 91.8205 202.382C93.6678 201.79 95.0969 199.516 96.9539 200.088C98.4424 200.536 98.8701 202.557 100.252 203.276C101.908 204.123 103.985 202.415 104.113 200.563C104.241 198.711 103.068 197.006 101.762 195.682C100.457 194.358 98.9308 193.184 98.0336 191.553" fill="#472D30"/>
<path d="M94.2243 191.165C88.6175 189.423 84.0007 186.406 79.4977 182.682C75.3233 179.236 71.6296 174.784 69.3757 169.846C67.4004 165.479 66.6244 160.302 69.0195 155.909C71.4147 151.515 75.878 150.234 80.4078 151.242C86.7571 152.648 91.067 158.212 94.4631 163.345C95.7337 165.268 99.3559 164.785 99.9469 162.501C101.741 155.647 108.551 146.633 116.532 151.346C124.433 156.019 124.039 167.148 119.697 174.098C117.098 178.269 113.165 181.48 108.831 183.737C104.046 186.232 99.0478 187.34 93.8864 188.696C88.7251 190.053 83.3682 193.579 84.2143 199.486C84.5505 201.807 86.1991 203.915 88.3093 204.893C90.5237 205.929 92.7657 205.425 94.7267 204.127C95.1971 203.811 95.7295 203.485 96.1457 203.093C96.7935 202.485 96.242 203.237 96.0629 202.83C95.8989 202.453 96.1664 203.09 96.2118 203.178C96.3631 203.472 96.6329 203.78 96.8431 204.045C97.3263 204.638 97.8891 205.197 98.5362 205.616C100.922 207.145 103.973 206.188 105.647 204.055C107.355 201.875 107.285 198.941 106.009 196.574C104.571 193.904 101.93 192.299 100.342 189.757C98.5814 186.925 93.5619 189.89 95.2783 192.783C96.6357 195.063 98.6352 196.492 100.292 198.514C100.814 199.154 100.886 199.757 101.222 200.426C101.267 200.514 101.064 200.641 101.062 200.694C101.062 200.694 101.37 200.7 101.406 200.726C101.626 200.851 101.191 200.293 101.191 200.293C100.188 198.181 97.6324 196.858 95.3657 197.271C94.3461 197.46 93.4373 198.023 92.5817 198.589C92.2467 198.821 91.3681 199.719 90.908 199.62C89.5279 199.324 90.5718 197.299 91.031 196.773C92.5876 195.051 95.1536 194.655 97.3041 194.176C102.418 193.06 107.494 191.495 112.107 188.984C120.747 184.285 127.518 176.601 128.905 166.621C130.226 157.182 125.36 146.491 115.482 144.114C105.067 141.619 96.4242 150.905 94.0027 160.217L99.4865 159.373C95.6119 153.54 90.6063 147.723 83.7037 145.544C77.6687 143.635 70.8398 144.411 66.2623 149.078C55.9796 159.548 62.9804 175.364 71.8434 184.083C77.6235 189.771 84.7642 193.427 92.6091 195.397C95.3647 196.095 97.0706 192.041 94.2243 191.165ZM269.561 141.53L269.89 139.954L269.765 140.45C269.995 139.535 270.281 138.644 270.568 137.752L270.986 136.481C271.066 136.246 271.147 136.011 271.218 135.788C271.488 134.994 271.436 134.314 271.158 133.541C270.865 132.739 270.003 132.162 269.176 132.088C268.747 132.048 268.353 132.109 267.955 132.276C267.549 132.455 267.229 132.716 266.954 133.066C266.267 133.828 266.314 134.891 266.259 135.842L266.153 137.564C266.072 138.752 265.871 139.927 265.662 141.114C265.478 142.116 266.407 143.202 267.412 143.259C267.904 143.289 268.439 143.186 268.832 142.85C269.251 142.478 269.451 142.055 269.569 141.518L269.561 141.53ZM292.537 155.437C292.651 155.282 292.756 155.139 292.881 154.992C292.951 154.897 293.045 154.819 293.115 154.723C293.282 154.496 292.802 155.026 293.016 154.834C293.315 154.576 293.599 154.289 293.91 154.039C294.222 153.79 294.557 153.559 294.883 153.339C294.951 153.297 295.242 153.125 294.93 153.3C294.618 153.475 294.921 153.312 294.98 153.282C295.166 153.179 295.351 153.076 295.528 152.985C296.214 152.626 296.933 152.345 297.668 152.094C297.939 152 297.077 152.249 297.556 152.122L297.83 152.048C298.013 151.999 298.199 151.97 298.382 151.921C298.944 151.781 299.496 151.654 300.054 151.494C300.529 151.347 300.924 150.883 301.156 150.466C301.388 150.049 301.528 149.509 301.43 149.015C301.236 148.028 300.43 147.125 299.384 147.074C297.212 146.932 294.986 147.889 293.169 149.016C291.575 150.014 290.222 151.409 289.119 152.913C288.462 153.809 288.629 155.234 289.575 155.872C290.553 156.516 291.821 156.363 292.534 155.417L292.537 155.437ZM309.232 175.809C311.3 175.967 313.416 175.811 315.43 175.268C315.731 175.232 316.011 175.125 316.249 174.951C316.526 174.823 316.749 174.62 316.93 174.348C317.262 173.895 317.453 173.208 317.347 172.653C317.24 172.097 316.946 171.496 316.439 171.161C315.968 170.853 315.314 170.593 314.744 170.745C313.433 171.105 312.085 171.292 310.735 171.33L311.315 171.315C310.776 171.324 310.255 171.309 309.71 171.276C309.132 171.238 308.529 171.384 308.057 171.753C307.584 172.123 307.232 172.727 307.206 173.314C307.18 173.901 307.296 174.518 307.683 174.967C308.07 175.416 308.613 175.777 309.244 175.818L309.232 175.809ZM317.413 201.835C317.64 201.8 317.868 201.765 318.09 201.762L317.457 201.775C317.827 201.771 318.183 201.811 318.545 201.893L317.918 201.746C318.325 201.842 318.723 201.951 319.13 202.047L318.503 201.9C318.658 201.94 318.812 201.979 318.97 202.04C319.264 202.164 319.567 202.202 319.88 202.175C320.191 202.201 320.478 202.136 320.764 201.997L321.287 201.683C321.555 201.493 321.759 201.239 321.883 200.945C322.015 200.766 322.081 200.576 322.111 200.359C322.214 200.068 322.22 199.76 322.172 199.449C322.056 198.832 321.748 198.275 321.222 197.89C320.864 197.628 320.459 197.404 320.048 197.213C319.855 197.126 319.606 197.091 319.407 197.037C319.187 196.986 318.955 196.926 318.739 196.896C318.49 196.86 318.256 196.854 318.022 196.847C317.557 196.855 317.113 196.86 316.67 196.939C316.347 196.978 316.046 197.088 315.779 197.277C315.484 197.429 315.241 197.636 315.052 197.919C314.85 198.194 314.714 198.479 314.659 198.806C314.558 199.118 314.532 199.429 314.604 199.757C314.732 200.383 315.041 201.014 315.584 201.375L316.162 201.688C316.566 201.838 316.987 201.89 317.422 201.823L317.413 201.835ZM153.802 179.385C155.131 182.581 152.125 185.554 149.782 187.324C146.069 190.109 141.573 191.935 138.892 195.917C132.989 204.696 140.407 214.008 146.186 220.448C149.088 223.677 151.397 227.187 152.979 231.265C154.206 234.424 155.048 238.51 153.111 241.551C151.428 244.172 148.22 245.143 145.343 245.787C141.819 246.563 138.188 247.059 134.83 248.434C126.558 251.805 122.631 263.245 128.428 270.487C129.752 272.137 132.515 270.546 131.638 268.563C130.196 265.322 130.076 261.103 132.054 258.055C133.789 255.362 137.198 254.043 140.178 253.309C147.33 251.54 155.524 251.03 159.389 243.73C161.432 239.867 161.461 235.245 160.223 231.124C159.659 229.226 158.859 227.407 157.843 225.708C156.603 223.642 154.932 222.216 153.338 220.459C150.329 217.152 147.195 213.514 145.002 209.594C142.993 205.973 141.726 201.593 144.896 198.244C148.257 194.687 153.024 193.042 155.998 189.036C158.359 185.865 159.717 181.409 157.599 177.763C156.289 175.518 152.751 176.889 153.797 179.418L153.802 179.385Z" fill="#472D30"/>
<path d="M95.7408 195.306C93.4695 197.202 93.2184 199.974 93.8523 202.715C94.4863 205.456 95.4863 207.823 95.8242 210.567C96.4855 216.101 94.6534 222.155 89.2733 224.636C83.5573 227.275 77.0104 229.745 75.1441 236.472C74.3263 239.415 75.0286 242.188 76.1218 244.954C77.09 247.389 78.5947 250.42 76.6896 252.768C75.0797 254.764 78.1095 257.793 79.9876 255.957C82.2525 253.744 82.7742 250.804 82.1458 247.755C81.5899 245.108 80.0001 242.694 79.7338 240.002C79.4333 236.881 82.1798 234.838 84.6948 233.561C87.622 232.072 90.5906 230.852 93.3665 229.069C98.5595 225.717 101.411 220.225 101.619 214.081C101.72 211.078 101.273 208.082 100.3 205.239C99.6818 203.427 97.3923 200.115 98.874 198.319C100.455 196.413 97.6278 193.734 95.7528 195.315L95.7408 195.306ZM227.126 217.591C225.181 220.369 223.18 223.198 220.446 225.251C217.882 227.171 214.887 227.674 211.769 227.921C205.384 228.417 197.533 228.609 193.784 234.801C190.962 239.451 192.132 244.641 193.134 249.634C193.563 251.803 194.068 254.119 193.636 256.336C193.107 259.087 190.86 260.799 188.447 261.912C181.723 265.024 171.807 265.629 169.43 274.13C168.595 277.097 172.48 278.533 173.863 275.82C176.992 269.724 186.142 269.713 191.611 266.912C194.605 265.381 197.202 263.191 198.619 260.081C199.669 257.748 199.809 255.152 199.601 252.632C199.25 248.428 197.032 243.717 198.129 239.491C199.748 233.226 208.958 234.085 213.846 233.501C217.508 233.065 220.986 231.925 223.917 229.631C226.988 227.22 229.271 223.955 231.409 220.713C233.274 217.895 229.121 214.795 227.158 217.597L227.126 217.591ZM248.544 249.925C248.462 259.026 247.351 268.73 241.67 276.204C236.789 282.612 228.707 286.324 220.949 282.858C219.39 282.156 217.924 281.1 216.811 279.788C215.905 278.72 214.332 276.759 214.908 275.272C215.332 274.169 216.955 273.707 218.01 273.746C219.811 273.818 221.127 275.278 221.928 276.765C225.738 283.762 222.597 293.631 217.236 298.916C210.65 305.395 201.157 305.999 192.935 302.615C190.267 301.522 187.837 305.688 190.45 307.182C199.476 312.349 211.764 310.912 219.635 304.181C227.575 297.408 232.258 284.284 227.189 274.472C224.669 269.596 219.313 266.459 213.944 268.875C211.646 269.907 209.808 271.863 209.314 274.365C208.751 277.11 209.95 279.806 211.479 282.028C217.737 291.096 230.883 291.243 239.247 285.368C250.529 277.466 252.688 263.078 252.445 250.288C252.394 247.828 248.569 247.337 248.558 249.881L248.544 249.925Z" fill="#472D30"/>
</g>
<defs>
<clipPath id="clip0_73_42662">
<rect width="266.491" height="266.491" fill="white" transform="translate(157.563) rotate(36.2458)"/>
</clipPath>
</defs>
</svg>
